<svg xmlns="http://www.w3.org/2000/svg" width="146" height="200" viewBox="0 0 146 200">
  <g fill="none" fill-rule="evenodd">
    <g fill="#006937" fill-rule="nonzero" transform="translate(0 99.338)">
      <path d="M24.6583231 44.412077C26.373789 43.4533288 29.4328366 46.5260871 30.5484893 47.0024838 31.6641419 47.4729254 32.3599253 47.9493221 34.7711746 47.7766283 34.9871074 48.0505564 37.3923585 49.7596293 34.4892624 49.8489537 31.5861662 49.9382781 29.588788 47.9433671 27.6273987 47.6158444 25.6600112 47.2883218 21.4133333 48.2172952 20.2257031 48.949755 20.5915892 47.0739433 21.7012437 45.6685732 24.6583231 44.412077zM48.40493 55.5538035C47.9850607 55.3334701 52.9935014 55.4168395 53.4493595 55.625263 53.9052176 55.8336865 55.6326797 56.3041282 57.8999739 56.9710835 60.167268 57.6380388 68.6246349 58.3943185 65.8474995 61.2050587 65.0437498 61.2229236 61.9127246 61.2884281 61.5588347 61.3122479 61.2049449 61.3360678 63.5322204 60.585743 60.6051317 59.9247427 60.6051317 59.9247427 58.4997871 59.6805894 56.1005341 58.88858 52.6096209 57.7333181 49.0587264 55.905146 48.40493 55.5538035zM42.7246984 72.0192625C43.4144837 72.8410467 51.2000598 74.2523717 51.4459832 75.2230299 51.9438282 77.2060309 55.5127171 66.0345296 68.3787115 63.4143481 68.3787115 63.4143481 73.9869655 60.9192207 68.7026106 60.1153014 68.8225733 60.2879951 71.161845 61.4075272 62.8304388 62.8843568 56.5983791 64.2599521 47.3132698 70.0005317 42.7246984 72.0192625zM43.0306032 74.1570924C44.4221699 74.6156242 45.4298562 74.4548403 46.7494454 74.9610117 48.0690345 75.4671832 51.254043 75.8959401 50.2883436 78.4387072 49.3226443 80.9814743 42.9286349 76.6343549 43.0306032 74.1570924zM11.4504351 7.15785956C14.4674958 9.30164445 14.4734939 13.4641601 14.5754622 14.7385211 14.4614977 14.6015571 14.341535 14.4645931 14.2215724 14.333584 13.8496881 13.910782 13.4598095 13.5117998 13.0639328 13.1187725 12.578084 12.630466 12.0562465 12.1778892 11.5284108 11.7312673 11.1985135 11.2786905 10.904605 10.8022939 10.6166947 10.3378071 10.4367507 10.0162394 10.2568067 9.69467168 10.1368441 9.34928411 10.0108833 9.00389655 9.94490383 8.64064411 9.87892437 8.24761688L9.82494118 8.24761688C9.74096732 8.62277923 9.69298226 9.03367134 9.75896172 9.43860848 9.80694678 9.82568076 9.95090196 10.1889332 10.1068534 10.5462307 9.99888702 10.4569063 9.8849225 10.3675819 9.77695612 10.2723026 9.70497852 10.1948882 9.63899907 10.1174737 9.57301961 10.0281493 9.25511858 9.61725723 9.01519328 9.14681554 8.8352493 8.65850898 8.65530532 8.16424746 8.51135014 7.65807603 8.3014155 7.1519046 8.19944725 6.8958414 8.08548273 6.63977821 7.92353315 6.39562493 7.77357983 6.15742661 7.55164893 5.91922829 7.26373856 5.83585887L7.23974603 5.88349854C7.62962465 6.25866089 7.68360784 6.78865216 7.82156489 7.30077855 7.94152754 7.82481486 8.10347712 8.35480612 8.34940056 8.86097755 8.42737628 9.01580646 8.51734827 9.16468041 8.60732026 9.31950932 8.38538936 9.14086058 8.16945658 8.95625688 7.94752568 8.77760814 7.05380392 8.11065284 6.1840747 7.39605788 5.16439216 6.8958414L5.14039963 6.94943603C6.10010084 7.50324712 6.921845 8.27143671 7.7675817 8.99198663 8.24743231 9.41478865 8.72128478 9.84950059 9.19513725 10.2782576 8.99719888 10.212753 8.78126611 10.1770233 8.5773296 10.1293836L8.22343978 10.1115187 8.04949393 10.1055638 7.87554809 10.1353386C7.39569748 10.1591584 6.98182633 10.4390414 6.65792717 10.7248794L6.68791783 10.7665641C7.48566947 10.3914018 8.30741363 10.4628613 9.05118207 10.8082488 9.68098599 11.0881319 10.3047918 11.4394744 10.8986069 11.8563214 11.0965453 12.0468801 11.3004818 12.2374388 11.4984202 12.4279974 11.5164146 12.4458623 11.534409 12.4637272 11.5524034 12.481592 11.8103231 12.773385 12.1042316 13.0354031 12.3801457 13.3093312 12.668056 13.5713494 12.9559664 13.8333675 13.2498749 14.0894307 13.6517498 14.4229084 14.0596228 14.7444761 14.4734939 15.0600889 14.3115444 15.0719988 14.0356303 15.0600889 13.7897068 14.9231248 12.6560598 14.3038092 7.93552941 12.0409251 5.77620168 10.4926361 3.61687395 8.94434697 2.07535387 5.06171433.971697479 4.03150659 4.51659384 3.56701986 8.40338375 4.99025483 11.4504351 7.15785956zM19.7758431.428756978C20.0637535 2.75119061 21.2993688 4.59127264 20.585591 7.4496525 20.585591 7.4496525 19.1160486 13.0830428 16.6628123 15.5364855 16.602831 15.5781702 16.5068609 15.5900801 16.3928964 15.5722153 16.3029244 15.0124492 16.2309468 14.4645931 16.2009561 13.9167369 16.2069542 13.7023584 16.2069542 13.482025 16.2189505 13.2676465 16.2549393 13.1128176 16.2969262 12.9579887 16.3569076 12.8091147 16.5308534 12.3922677 16.83076 12.0706999 17.1426629 11.772952 17.4665621 11.4692492 17.8504426 11.2191409 18.2883063 10.9690327L18.27631 10.9154381C17.7604706 10.8737534 17.2326349 11.0404922 16.7947712 11.3441951 16.5848366 11.487114 16.4168889 11.6776727 16.2789318 11.8920512 16.2789318 11.8682314 16.28493 11.8444115 16.28493 11.8265467 16.3389132 11.3918347 16.422887 10.9630777 16.5368515 10.5402757 16.5668422 10.4569063 16.5968329 10.3675819 16.6268235 10.2842125 16.7287918 10.0221944 16.8427563 9.76017622 16.9687171 9.50411302 17.1186704 9.23613991 17.28062 8.98007672 17.4905546 8.75378831 17.7604706 8.46199537 18.0903679 8.22379705 18.4622521 8.06896814 18.8341363 7.90222931 19.2360112 7.8188599 19.6378861 7.71167065L19.6258898 7.65807603C19.2240149 7.73549049 18.8041457 7.78313015 18.4022708 7.92604914 18.1023641 8.02728343 17.8144538 8.17615738 17.5565341 8.36671604 17.5625322 8.34885116 17.5745285 8.33694125 17.5805266 8.31907637 17.7544725 7.99155368 17.958409 7.72358057 18.1143604 7.28886863 18.1563473 7.1519046 18.1743417 7.00898561 18.1803399 6.87202157 18.456254 6.42539972 18.7441643 5.97877787 19.0380728 5.54406593L18.9900878 5.51429114C18.7141737 5.86563366 18.4382596 6.21697619 18.1743417 6.57427367 18.1563473 6.39562493 18.1263567 6.22293115 18.0843697 6.06214728 17.8804332 5.32968744 17.5325415 4.68059701 17.8024575 3.96600205L17.7544725 3.94218222C17.5265434 4.24588508 17.4245752 4.66273214 17.460564 5.04980441 17.4845565 5.44283164 17.5685303 5.81203904 17.6225135 6.15742661 17.6764967 6.50876913 17.6824949 6.83629182 17.5805266 7.12212981 17.4905546 7.38414796 17.2386331 7.72358057 17.0886797 8.05705822 16.962719 8.3012115 16.8547526 8.54536478 16.7467862 8.79547302 16.7287918 8.39053587 16.6568142 8.0034636 16.5308534 7.62234628 16.4048926 7.23527401 16.1769636 6.88393149 15.9310401 6.58618359L15.8830551 6.61000342C16.1709655 7.34841821 16.2549393 8.08087805 16.2189505 8.81333789 16.1589692 9.49815806 16.0510028 10.212753 15.9430364 10.9392579 15.7331018 11.6657628 15.5831485 12.4220425 15.6371317 13.190232 15.6431298 13.2914663 15.6611242 13.3927006 15.6671223 13.4939349 15.697113 14.1549352 15.8110775 14.8159356 16.0390065 15.4412062 15.4092026 15.0898637 14.5934566 14.053701 14.6054528 12.1302495 14.6414416 7.96773385 15.6191373 3.41219095 19.7758431.428756978zM16.422887 19.3059739C16.422887 19.3059739 17.0406947 20.6875242 17.1666555 21.2532452 17.2026443 21.4080741 17.1426629 21.5986328 17.0346965 21.8011014 16.9867115 21.717732 16.9447246 21.6343625 16.8907414 21.5569481 16.7947712 21.425939 16.692803 21.2949299 16.5968329 21.1639209 16.2609374 20.6279746 15.8290719 20.1396681 15.3612176 19.722821 14.9533445 19.3595686 14.521479 19.0320459 14.0836153 18.7223881L13.1838954 18.0792526C12.8899869 17.8291444 12.6140728 17.5671262 12.3741475 17.2634233 12.1282241 16.9537655 11.9302857 16.6143329 11.8103231 16.2332156 11.6843623 15.8580532 11.6303791 15.4531161 11.582394 15.0541339L11.5284108 15.0600889C11.5464052 15.465026 11.5643996 15.8759181 11.6603697 16.2749003 11.7503417 16.6798375 11.9302857 17.0669097 12.1582148 17.4182523 12.1642129 17.4242072 12.170211 17.4301622 12.1762092 17.4420721 12.0082614 17.3646576 11.8403137 17.2931981 11.6663679 17.2336486 11.6303791 17.2098287 11.5883922 17.1919638 11.5524034 17.168144 10.4187563 16.5369185 9.24912045 15.9771524 8.06748833 15.4471611 6.88585621 14.9231248 5.68622969 14.4467282 4.5105957 13.9167369L4.48660317 13.9643766C5.6322465 14.5598724 6.80188235 15.1077285 7.94752568 15.6913144 8.76327171 16.1022065 9.57301961 16.5369185 10.3647731 16.9894953 10.1008553 16.9716304 9.84293557 16.9775854 9.58501587 16.9954502 8.49335574 17.0669097 7.44968067 17.3408378 6.37601494 17.4242072L6.37601494 17.4778018C7.4556788 17.4658919 8.52934454 17.2634233 9.59101401 17.2634233 10.1248478 17.2515134 10.6646797 17.311063 11.1685229 17.453982 11.2225061 17.4837568 11.2764893 17.5135316 11.3304725 17.5433064 12.0682428 17.9958832 12.7820205 18.4901447 13.4718058 19.0022711 12.8300056 18.8295773 12.1522166 18.7878926 11.5044183 18.8950818 11.084549 18.9546314 10.6886723 19.0915955 10.3047918 19.2404694 9.9209113 19.3952983 9.56102334 19.5977669 9.18913912 19.7585508L9.20713352 19.8121454C9.60301027 19.6811363 9.97489449 19.5143975 10.358775 19.4012533 10.7486536 19.294064 11.1385322 19.1928297 11.5404071 19.1749649 12.3321606 19.0975504 13.1299122 19.2464244 13.8316937 19.585857 14.0116377 19.6573165 14.1735873 19.7764156 14.341535 19.871695 14.5154809 19.9610193 14.6654342 20.0860734 14.8213856 20.2111276 15.1392866 20.437416 15.427197 20.711344 15.7211055 20.9674072 15.8710588 21.0924614 16.0090159 21.2294254 16.1469729 21.3663894 16.374902 21.6224526 16.5848366 21.8904257 16.7947712 22.1703088 16.512859 22.5514261 16.1709655 22.8729938 16.1709655 22.8729938 12.4161345 23.2481562 7.94752568 19.6811363 6.80188235 18.7521628 5.65623903 17.8291444 1.03767694 13.1068626.479850607 12.5530515 2.14133333 12.1302495 13.0879253 12.7257453 16.422887 19.3059739zM22.349042 12.8746193C22.7269244 13.9405568 24.8562614 17.590946 24.9042465 21.3247047 24.9342372 23.3851202 23.3567283 25.1358779 22.1870924 26.7139417 22.1031186 26.4042839 22.0251429 26.0886711 21.9531653 25.7730584 21.803212 25.1537427 21.6892474 24.5284721 21.6292661 23.9091565L21.6112717 23.4446698C21.6112717 23.2898409 21.6292661 23.1409669 21.6412624 22.992093 21.6772512 22.7003 21.7192381 22.414462 21.8332026 22.1703088 21.9231746 21.9142456 22.0971204 21.6998671 22.3250495 21.5033535 22.5469804 21.3068398 22.8408889 21.1162812 23.0448254 20.8423531L23.0088366 20.8006684C22.7209262 20.9495424 22.4150215 21.0150469 22.1091167 21.1817857 21.803212 21.3306597 21.5033053 21.5986328 21.3353576 21.9321104 21.3053669 21.9857051 21.2873725 22.0452546 21.26338 22.0988493 21.2813744 21.6224526 21.3413557 21.1520109 21.4853109 20.6934792 21.7012437 19.8955148 22.1750962 19.1928297 22.6849374 18.5199195L22.6429505 18.4841897C22.0791261 19.1035054 21.5272979 19.7823706 21.2273912 20.5981998 21.0954323 20.9316775 21.0114585 21.2711101 20.9514771 21.6224526 20.9514771 21.6224526 20.945479 21.6164977 20.945479 21.6164977 20.8735014 20.7530287 20.9034921 19.8836049 21.0594435 19.0260909 21.2033987 18.0554328 21.5692848 17.1324143 21.803212 16.1617561L21.7492288 16.1498462C21.4493221 17.0847746 21.0114585 17.9899282 20.7895275 18.9724963 20.6095836 19.728776 20.5196116 20.5088755 20.5136134 21.288975 20.4896209 21.2770651 20.4716265 21.2651551 20.447634 21.2472903 20.129733 21.0269568 19.8178301 20.7887585 19.499929 20.5565151L19.4579421 20.5922449C19.6558805 20.9376324 19.8898077 21.2592002 20.1477274 21.568858 20.26769 21.711777 20.3696583 21.8785158 20.5316078 21.9797501 20.5735948 22.7122099 20.6575686 23.4565797 20.8375126 24.1711747 20.7415425 24.11758 20.6515705 24.0758953 20.5556004 24.0282557 20.1657218 23.8496069 19.7578487 23.7066879 19.5059272 23.3613004L19.4579421 23.3851202C19.6498824 23.8019673 20.0817479 24.0282557 20.4236415 24.266454 20.6635668 24.4153279 20.8794995 24.5820668 21.0174566 24.7785804 21.035451 24.832175 21.0474472 24.8857696 21.0654416 24.9334093 21.0894342 24.9989138 21.1194248 25.0644184 21.1434174 25.1358779 21.1914024 25.3204816 21.2393875 25.4991303 21.3053669 25.677779 21.3173632 25.7075538 21.3293595 25.7373286 21.3353576 25.7611485 21.3833427 25.9517071 21.443324 26.1422658 21.5212997 26.3268695 21.5872792 26.4757434 21.6532586 26.6186624 21.7252362 26.7615814 21.7372325 26.7913562 21.7492288 26.8270859 21.7672232 26.8568607 21.803212 26.9402301 21.8451989 27.0235996 21.8871858 27.1129239 21.7852176 27.2558429 21.6892474 27.4047169 21.5992754 27.5476359 21.5992754 27.5476359 20.6635668 28.661213 19.8118319 27.2856177 18.954099 25.9278873 16.0210121 20.6756143 22.349042 12.8746193zM19.3799664 27.666735C18.7981475 27.4642665 18.186338 27.4225817 17.5925229 27.3451673L17.1426629 27.2915727C17.0047059 27.2677528 16.872747 27.243933 16.7467862 27.1843834 16.4888665 27.0831491 16.2549393 26.9164103 16.0330084 26.7139417 15.5951447 26.3149596 15.2052661 25.832608 14.7674024 25.403851L14.7254155 25.4395807C15.109296 25.9159774 15.4211989 26.4281038 15.83507 26.9045004 16.0210121 27.106969 16.2309468 27.2975276 16.4828683 27.4404466 15.5291653 27.3273024 14.5694641 27.2022483 13.6817404 26.8985454 13.435817 26.7734913 13.2018898 26.6305723 12.9739608 26.4757434 12.8300056 26.3268695 12.7160411 26.1422658 12.6320672 25.9457522 12.4461251 25.4812654 12.3981401 24.9631841 12.2961718 24.4570126L12.2421886 24.4689226C12.3141662 24.975094 12.3141662 25.4931753 12.4761158 26.0053017 12.4941102 26.0648513 12.5241008 26.1184459 12.5480934 26.1779955 12.2002017 25.9159774 11.8643063 25.6360943 11.534409 25.3443014 11.174521 25.0346436 10.8266293 24.695211 10.40676 24.4391478L10.3767694 24.4867874C10.7606499 24.7607155 11.0785509 25.1239679 11.4144463 25.4634006 11.7503417 25.8028332 12.0922353 26.1482207 12.4581214 26.4578785 13.2018898 27.0712392 14.0596228 27.6250503 15.0613109 27.815609 16.0330084 27.9942577 16.9987077 28.0776271 17.9404146 28.1133569 17.9824015 28.1133569 18.0243884 28.1193118 18.0663754 28.1193118 18.0903679 28.1252668 18.1143604 28.1252668 18.1383529 28.1312218 18.6481942 28.2026813 19.1520373 28.244366 19.589901 28.3932399 19.679873 28.4230147 19.7638469 28.4587444 19.8478207 28.5004292 20.1717199 29.1018799 20.5016172 29.7688352 20.8255163 30.5251149 15.0073277 33.2703505 6.58594958 24.3021837 6.35802054 22.8670389 12.3261625 24.4629676 15.9190439 22.0809844 19.3799664 27.666735zM25.2401419 34.7888648C25.1261774 34.4375223 25.0482017 34.0861798 25.0002166 33.7229273 24.9342372 33.1869811 24.9222409 32.639125 24.9822222 32.0853139 25.0362054 31.5612776 25.1501699 31.0372413 25.2761307 30.50725 25.9959066 30.1678174 26.7096844 29.792655 27.3634809 29.3222134 28.0352717 28.8339068 28.6710738 28.238411 29.0189655 27.4821313L28.9709804 27.4583115C28.5691055 28.1729065 27.9153091 28.7028977 27.2255238 29.1256997 26.6137143 29.5008621 25.9599178 29.8164749 25.2941251 30.0904029 25.4800672 29.7033307 25.6900019 29.3222134 25.9119328 28.947051 26.5597311 27.8632486 27.3274921 26.8330409 27.8973147 25.6658691 28.4611391 24.5106073 28.8870065 23.1886066 28.6950663 21.8963807L28.6410831 21.8963807C28.5211204 23.1707417 28.0172773 24.3200486 27.4114659 25.4098059 26.7996564 26.5055182 26.1398618 27.5952755 25.5340504 28.7326725 25.378099 29.0244655 25.2281457 29.3281683 25.0841905 29.6318712 25.0721942 29.6199613 25.0661961 29.6080513 25.0541998 29.6020964 24.7962801 29.095925 24.5383604 28.5778436 24.4423903 28.0299875 24.3944052 27.7501044 24.4183978 27.4702214 24.4603847 27.1784285 24.5023716 26.8866355 24.5383604 26.5888876 24.5263641 26.2970947L24.472381 26.2970947C24.4543866 26.5888876 24.4004034 26.8747256 24.3344239 27.1605636 24.2684444 27.4464016 24.2144613 27.7501044 24.2444519 28.0538073 24.2984351 28.667168 24.5323623 29.226934 24.7722876 29.7688352L24.7842838 29.792655 24.8082764 29.8164749C24.8742558 29.8819794 24.9042465 29.947484 24.9222409 30.0129885 24.6043399 30.7752231 24.3644146 31.5672325 24.3104314 32.4009267 24.2984351 32.5974403 24.2984351 32.7939539 24.3104314 32.9904675 24.3044332 33.055972 24.2984351 33.1214766 24.2984351 33.1869811 24.292437 33.3954047 24.3104314 33.6038282 24.3284258 33.8182067 22.6369524 31.787566 21.9891541 29.2864836 24.1064949 25.4634006 27.3094977 19.6751813 28.1312418 19.008226 29.2408964 17.5790361 29.270887 17.5373514 29.3008777 17.5016217 29.3308683 17.459937 33.7754846 29.0601952 25.6420168 35.1521173 25.6420168 35.1521173 25.4920635 35.0270632 25.3661027 34.907964 25.2401419 34.7888648z"/>
      <path d="M17.5325415 31.9721697C17.5325415 31.9721697 20.2376993 33.061927 22.3430439 32.1329536 22.3430439 32.1329536 22.70893 33.1750712 23.296747 34.1695492 23.0568217 34.1755042 22.8108982 34.1814591 22.5769711 34.1814591 22.121113 34.1755042 21.6652549 34.1576393 21.215395 34.1159546 20.2976807 34.0206752 19.361972 33.919441 18.5402278 33.5085489 17.7004893 33.061927 16.7707787 32.6748547 15.8110775 32.5200258 14.8453782 32.359242 13.8856769 32.3711519 12.9259757 32.3651969L12.9259757 32.4187915C13.8796788 32.502161 14.83938 32.5617105 15.7570943 32.7879989 16.4768702 32.9487828 17.1426629 33.2346208 17.7844631 33.5800084 17.6225135 33.5680984 17.4665621 33.5621435 17.3046125 33.5621435 16.9147339 33.5680984 16.5248553 33.6038282 16.1469729 33.7169724 15.7750887 33.8301166 15.4032045 34.0385401 15.2112642 34.3898826L15.2592493 34.4196574C15.4751821 34.1099996 15.8290719 33.9492158 16.1889599 33.8777563 16.5488478 33.8062968 16.9267302 33.8062968 17.2986144 33.8360716 17.8024575 33.8718013 18.2883063 33.9730356 18.774155 34.1040447 19.3379795 34.3601079 19.9317946 34.5328016 20.537606 34.6102161 20.9514771 34.6935855 21.3773445 34.7471801 21.7972138 34.7174053 22.3670364 34.6876305 22.9248627 34.5863963 23.4586965 34.4256124 23.6446387 34.7114504 23.842577 34.9853785 24.0585098 35.2176218 22.528986 36.2478296 21.1914024 38.2546504 9.19513725 32.3651969 12.4461251 30.5787095 12.710043 30.3047814 17.5325415 31.9721697zM31.442211 34.4315674C32.7857927 32.8713683 34.6752045 28.5480688 35.4189729 26.815176 36.2587115 27.4761764 39.1917983 31.9840796 36.8225359 37.0041092 36.8225359 37.0041092 36.2767059 38.1831909 35.1550551 40.446075 34.3752979 42.0122289 34.0394024 42.7863735 33.475578 42.6910941 33.2896359 42.143238 33.1996639 41.5656071 33.1576769 40.9939311 33.1336844 40.577084 33.1336844 40.1483271 33.1456807 39.725525 33.3376209 38.742957 33.6015387 37.7663439 33.9554286 36.8135506 34.1413707 36.2895143 34.3932923 35.7833428 34.5852325 35.2354867 34.7771727 34.6935855 34.9451204 34.1516843 35.0890756 33.6038282 35.2390289 33.055972 35.3589916 32.502161 35.4789542 31.9483499 35.604915 31.4004937 35.7008852 30.8347727 35.8808291 30.3107364L35.8328441 30.2869166C35.6109132 30.8169078 35.4789542 31.364764 35.3110065 31.9066651 35.1550551 32.4485663 34.9871074 32.9904675 34.8131615 33.5204588 34.6392157 34.056405 34.4472754 34.5863963 34.2313427 35.0985227 34.0873875 35.4439102 33.9194398 35.7952527 33.7514921 36.1465953 33.7814827 36.0572709 33.7994771 35.9679465 33.8294678 35.8786222 33.9194398 35.6046941 34.021408 35.330766 34.1353725 35.0627929 34.1893557 34.9317838 34.2553352 34.8007748 34.3153165 34.6697657L34.4172848 34.479207C34.4532736 34.4077475 34.4892624 34.3243781 34.5132549 34.2410087 34.6032269 33.8896662 34.4472754 33.5680984 34.3093184 33.3179902 34.1653632 33.055972 34.0154099 32.8118188 33.9254379 32.5378907 33.7274995 31.9959895 33.8594585 31.3885838 34.1413707 30.8824124L34.0933856 30.8526376C33.7814827 31.3468991 33.5955406 31.9840796 33.7754846 32.5795754 33.8594585 32.8773233 34.0034136 33.1452964 34.1233763 33.4073146 34.2493371 33.6693327 34.3453072 33.9373058 34.2613333 34.1695492 34.2433389 34.2290988 34.2133483 34.2826934 34.1833576 34.342243L34.0693931 34.5387566C33.9974155 34.6697657 33.9254379 34.8007748 33.8594585 34.9377388 33.7274995 35.2057119 33.6075369 35.47964 33.4995705 35.759523 33.2836377 36.3192891 33.1036937 36.8850101 32.9597386 37.468596 32.9117535 37.6591546 32.8697666 37.8556682 32.8277796 38.0521818 32.5938525 37.6651096 32.4259048 37.2542175 32.3599253 36.8016407 32.257957 36.1704151 32.3539272 35.47964 32.3959141 34.7769549L32.3419309 34.765045C32.0480224 35.4022255 31.8140952 36.0930006 31.8440859 36.8492803 31.8560822 37.2244427 31.9520523 37.599605 32.1140019 37.9449926 32.2639552 38.2427405 32.4618936 38.5047586 32.6838245 38.742957 32.5578637 39.1836239 32.4978824 39.6242908 32.479888 40.0649577 32.4738898 40.3329308 32.4858861 40.6009039 32.5098786 40.868877 32.5158768 41.3095439 32.5638618 41.7561657 32.6598319 42.1849227 32.6118469 42.143238 32.5698599 42.1015533 32.5158768 42.0539136 30.3505509 39.9399035 30.0986293 35.9917664 31.442211 34.4315674zM25.7079963 38.6774524C28.4371466 38.6119479 31.1483025 40.4163002 32.5458674 42.8399681 32.2759514 42.6374995 31.982043 42.4588508 31.6701401 42.3159318 31.352239 42.0836884 31.0163436 41.8693099 30.6624538 41.6847062 29.8707003 41.2440393 28.9889748 40.9820212 28.1012512 40.7974175 27.2195257 40.6068588 26.3138077 40.5234894 25.4140878 40.5294444 24.9642278 40.5353993 24.520366 40.5711291 24.0765042 40.6128138 23.6326424 40.6544985 23.1947787 40.725958 22.756915 40.725958L22.7509169 40.7795526C23.2007768 40.8152824 23.6446387 40.7795526 24.0885005 40.7735977 24.5323623 40.7676427 24.970226 40.7676427 25.4140878 40.7974175 26.2898151 40.8450572 27.1595444 40.9820212 27.9992829 41.2202195 28.6410831 41.3929133 29.2468945 41.6489765 29.8527059 41.9169496 29.4448329 41.9407694 29.0369599 42.0300938 28.6770719 42.1968326 28.3471746 42.3397516 28.0532661 42.5303103 27.7593576 42.714914 27.4654491 42.8935627 27.1835369 43.1079412 26.8536396 43.1734457L26.8596377 43.2270404C27.2195257 43.1913106 27.5314286 43.0067069 27.8433315 42.857833 28.1552344 42.7030041 28.4611391 42.5541301 28.7790401 42.4528958 29.4088441 42.2325624 30.0866331 42.2146975 30.6984426 42.429076 31.3222484 42.6374995 31.8440859 43.0483916 32.4019122 43.4116441 32.6118469 43.566473 32.8217815 43.7213019 33.0377143 43.8761308 33.7574902 46.0139607 31.304254 45.6626182 28.4731354 44.6026357 25.6360187 43.5426531 23.5006835 41.7621207 19.0380728 41.3929133 23.4826891 38.4749839 25.7079963 38.6774524 25.7079963 38.6774524zM47.5172063 52.7549732C47.4752194 52.7192435 47.4332325 52.6775588 47.3912456 52.641829 47.1213296 52.4214956 46.8274211 52.2309369 46.5275145 52.0463332 46.4555369 52.0106035 46.3895574 51.9748737 46.323578 51.939144 46.2156116 51.8438646 46.1076452 51.7426304 45.9996788 51.653306 45.3938674 51.1530895 44.7040822 50.7838821 44.0142969 50.4384946 43.6484108 50.2062512 43.2825247 49.9740078 42.9046424 49.7536744 42.8806499 49.4976112 42.8386629 49.235593 42.7486909 48.9854848 42.6467227 48.7056018 42.4847731 48.4495386 42.2748385 48.24707 42.070902 48.0386465 41.8429729 47.8778626 41.6450345 47.6873039 41.4470962 47.4967453 41.2791485 47.2764118 41.1591858 47.0263036L41.1112007 47.0501234C41.213169 47.3121416 41.3691204 47.5622498 41.5610607 47.7706734 41.7530009 47.9850518 41.9689337 48.1637006 42.1428796 48.3721241 42.3228235 48.5745927 42.4427862 48.812791 42.5147638 49.0628992 42.5747451 49.2891876 42.5987376 49.527386 42.6107339 49.7655843 42.2448478 49.5988455 41.8729636 49.4380616 41.5070775 49.2832327 41.1171989 49.1224488 40.7273203 48.961665 40.3434398 48.7949261 39.9655574 48.6222323 39.5696807 48.4614485 39.2457815 48.1994303L39.2097927 48.241115C39.5216956 48.5388629 39.9055761 48.7353766 40.2714622 48.9438001 40.6433464 49.1462687 41.0212288 49.3368273 41.393113 49.5333409 42.1428796 49.9144582 42.886648 50.3015305 43.612422 50.7243325 43.8703417 50.8732065 44.1162652 51.0280354 44.3621886 51.1947742 44.0922726 51.1471346 43.8163585 51.1114048 43.5344463 51.1292697 43.1745584 51.1471346 42.8266667 51.2364589 42.5027675 51.367468 42.1788683 51.4865672 41.8789617 51.653306 41.5430663 51.6949907L41.5430663 51.7485853C41.8969561 51.7485853 42.2268534 51.6056663 42.5567507 51.5282519 42.8806499 51.4329725 43.2105472 51.3912878 43.5404444 51.4091527 44.1942409 51.4270176 44.830043 51.6711709 45.4058637 51.9927386 45.4478506 52.0165584 45.4898375 52.0403783 45.5318245 52.0641981 45.6397908 52.1475675 45.7477572 52.2309369 45.8497255 52.3202613L47.3792493 53.5231628C47.4632232 53.5886674 47.5411989 53.6541719 47.6251727 53.7256314 47.637169 53.8745053 47.6431671 54.0233793 47.6551634 54.1782082 36.4326573 53.21946 35.4369673 45.1326269 35.4369673 45.1326269 42.7366947 46.8714747 46.7494454 46.7642854 47.5172063 52.7549732zM34.9931055 42.8399681C35.3050084 42.0479587 36.5286275 40.8986518 36.960493 40.2316965 38.3460616 38.1057765 38.3340654 36.0274961 38.3340654 36.0274961 41.7470028 40.8569671 43.9123287 40.9641563 44.4161718 46.0735103 44.1942409 46.0139607 41.3211354 45.6685732 38.7959216 45.0611674 38.7599328 44.9003836 38.7479365 44.7336448 38.7419384 44.560951 38.7419384 44.275113 38.771929 43.9773651 38.8259122 43.6915271 38.9278805 43.1138962 39.0058562 42.5184004 39.2157908 41.9645893 39.269774 41.8216703 39.3297554 41.7085261 39.401733 41.5656071 39.4857068 41.4048232 39.5456881 41.2321294 39.5636825 41.0594356 39.6056695 40.7080931 39.5216956 40.3865254 39.4377218 40.0828225 39.2457815 39.4813718 38.9818637 38.9275607 38.9458749 38.308245L38.8918917 38.308245C38.8559029 38.9394706 39.0598394 39.5587862 39.1738039 40.1483271 39.2337852 40.44012 39.2757722 40.7438229 39.2157908 41.005841 39.1917983 41.1368501 39.1378151 41.2559493 39.0658375 41.3631385 38.9818637 41.4881926 38.8858936 41.6430215 38.8199141 41.7859405 38.5380019 42.3695264 38.3100728 42.9828871 38.2800822 43.6379325 38.2620878 43.9595002 38.274084 44.2929779 38.364056 44.6145456 38.3940467 44.7395997 38.4420317 44.8646538 38.5020131 44.983753 36.4086648 44.4537617 34.6392157 43.7332118 34.9931055 42.8399681zM46.1376359 38.3022901C47.3132698 38.9096958 53.8932213 41.291679 53.6412997 54.7915689 53.3653856 54.8987581 53.0894715 54.9463978 52.8075593 54.9523527 52.4176807 54.7975238 52.069789 54.5652805 51.799873 54.2496677 51.2180542 53.5767574 50.8821587 52.6954236 50.6542297 51.7843151 50.6542297 51.7366754 50.6482316 51.6890357 50.6482316 51.647351 50.6482316 51.5937564 50.6482316 51.5461167 50.6482316 51.4925221 50.7621961 51.1590445 50.8401718 50.8374767 50.9421401 50.521864 51.074099 50.1169268 51.1400784 49.6941248 51.3140243 49.2951426 51.4759739 48.8961604 51.7039029 48.5090881 51.8958431 48.0922411 52.0877834 47.675394 52.1897516 47.1870875 52.0997796 46.7345107L52.0457965 46.7404656C52.0397983 47.1870875 51.889845 47.5979796 51.6499197 47.961232 51.4159925 48.3304394 51.1400784 48.6936918 50.9121494 49.098629 50.8161793 49.2653678 50.7262073 49.4440166 50.6422334 49.6226653 50.6482316 49.1760434 50.6602278 48.7234666 50.6902185 48.2708898 50.7202092 47.6873039 50.7082129 47.0977631 50.6002465 46.5201322 50.486282 45.9425012 50.2883436 45.3827352 50.0184276 44.8706088 49.7425135 44.3584824 49.40062 43.8880407 49.040732 43.4414189 48.6808441 42.994797 48.3089599 42.56604 48.0210495 42.0777335L47.9730644 42.1015533C48.2309841 42.6136797 48.5848739 43.0781664 48.9087731 43.5426531 49.2386704 44.0071399 49.5445752 44.4835365 49.7725042 44.9956629 50.0064314 45.5018343 50.168381 46.0377806 50.2523548 46.5796817 50.3243324 47.1275379 50.3123361 47.681349 50.2583529 48.2351601 50.2283623 48.5090881 50.1983716 48.7889712 50.168381 49.0688542 50.0964034 48.7353766 50.0064314 48.4018989 49.8864687 48.0743762 49.6885303 47.5443849 49.4066181 47.0024838 48.9207694 46.6570962 48.4349206 46.3057537 47.8411055 46.2700239 47.3432605 46.0437355L47.319268 46.0913752C47.817113 46.3593483 48.40493 46.4427177 48.812803 46.7940602 49.2266741 47.1334928 49.448605 47.6515742 49.6045565 48.1637006 49.7665061 48.6817819 49.8444818 49.2296381 49.9224575 49.7715393 49.9824388 50.3074855 50.0184276 50.8553416 50.0964034 51.4151077 50.1024015 51.504432 50.1024015 51.5937564 50.1083996 51.6830808 50.168381 52.2607117 50.2643511 52.8442976 50.4682876 53.4040637 50.5702558 53.6839467 50.7022148 53.9519198 50.8641643 54.202028 50.894155 54.2437127 50.9301438 54.2794425 50.9601345 54.3211272 48.6928403 52.7787931 46.6954622 48.7413315 46.5035219 45.4244199 46.281591 41.7740306 45.7237647 38.8561012 46.1376359 38.3022901z"/>
      <path d="M7.61762838,0.154828909 C9.31509991,0.387072272 10.8866106,1.4470548 12.7340355,2.29265884 C13.3998282,2.5963617 14.0956116,2.87028977 14.7973931,3.13826288 C14.7314136,3.14421784 14.6714323,3.14421784 14.6054528,3.1501728 C14.4135126,3.16803767 14.2275705,3.19185751 14.0416284,3.21567734 C13.573774,3.2216323 13.1059197,3.26927196 12.6440635,3.37050625 C12.6260691,3.37050625 12.6140728,3.37646121 12.6020766,3.38241616 C11.8223193,3.35264137 11.036564,3.18590255 10.2748011,2.94174927 C9.83693744,2.79883028 9.4050719,2.63209145 9.00319701,2.41771296 C8.7992605,2.31052372 8.60132213,2.19142456 8.42737628,2.04850556 C8.2654267,1.91154153 8.06748833,1.71502791 8.14546405,1.51255934 L8.09747899,1.48873951 C8.03149953,1.60783867 8.06748833,1.75075766 8.12746965,1.85199195 C8.18745098,1.95918119 8.27142484,2.04850556 8.35539869,2.13187498 C8.52934454,2.2986138 8.72128478,2.42962288 8.92522129,2.56063195 C9.32709617,2.81074019 9.75296359,3.01320877 10.1908273,3.19185751 C10.6286909,3.37050625 11.084549,3.50747028 11.5464052,3.62061448 C11.6063866,3.6325244 11.6663679,3.63847936 11.7203511,3.65634423 L11.6843623,3.66825415 C11.3964519,3.76353348 11.0905472,3.81117314 10.7846424,3.82903802 C9.53103268,3.87667768 8.27742297,3.39432608 7.07779645,2.90006456 C6.47198506,2.64995633 5.86617367,2.38793817 5.24836601,2.16164977 C4.63055836,1.95322624 3.96476564,1.73884775 3.29897292,1.86390186 L3.31096919,1.91749649 C3.95876751,1.83412707 4.59456956,2.07828035 5.18838469,2.32243363 C5.78819795,2.57849683 6.37001681,2.87624473 6.96383193,3.16208272 C8.15146218,3.70993886 9.39907376,4.26970491 10.7966387,4.2994797 C11.1445303,4.2994797 11.492422,4.25779499 11.8343156,4.16847062 L12.3081681,4.03150659 C12.4581214,3.99577684 12.6140728,3.95409213 12.7700243,3.9302723 C13.3878319,3.81117314 14.0296321,3.75757852 14.6654342,3.76353348 C15.9370383,3.76948844 17.2206387,3.99577684 18.3962726,4.56745281 C17.4485677,5.24631803 11.0125714,10.4569063 0.203936508,1.35773043 C1.82943044,0.923018495 3.80881419,-0.369207398 7.61762838,0.154828909 Z" transform="translate(28.791 51.213)"/>
    </g>
    <g fill="#4A4F54" fill-rule="nonzero" transform="translate(12.978 174.25)">
      <path d="M5.11080308,1.01199564 L7.82666007,2.6521265 C8.52790979,3.07669938 8.96173377,3.58851327 9.11030363,4.19338422 C9.26481628,4.79825518 9.12813201,5.43802254 8.70025083,6.1126863 C8.48036744,6.46746638 8.18917052,6.78153399 7.83854565,7.0607052 C7.48792079,7.33987641 7.02438284,7.48527808 6.44793179,7.50272628 C5.87148075,7.52017448 5.27720132,7.33987641 4.65915072,6.96764813 L4.05892849,6.60705198 L2.19289109,9.56743003 L0.398167217,8.48564158 L5.11080308,1.01199564 Z M5.99627943,3.5303526 L4.9860044,5.12977099 L5.37822882,5.36822973 C5.66942574,5.54271174 5.94873707,5.61250454 6.21022002,5.56597601 C6.47764576,5.51944747 6.69158636,5.36822973 6.86392739,5.10069066 C7.02438284,4.84478372 7.07786799,4.61795711 7.02438284,4.41439477 C6.97089769,4.21083242 6.81044224,4.02471828 6.5430165,3.86768448 L5.99627943,3.5303526 Z"/>
      <polygon points="12.836 5.403 14.726 6.281 11.666 12.586 14.269 13.796 13.484 15.413 8.991 13.325"/>
      <path d="M19.8489329 8.50890585L21.810055 9.20101781 19.7954477 14.6681207C19.6349923 15.1043257 19.5755644 15.4474736 19.6171639 15.7091967 19.6587635 15.9709197 19.8013905 16.1454017 20.0509879 16.2326427 20.3065281 16.3256997 20.538297 16.2908033 20.740352 16.1395856 20.942407 15.9883679 21.1147481 15.7091967 21.2633179 15.3137041L23.3195248 9.73609597 25.2925325 10.434024 23.1947261 16.1221374C22.879758 16.9829153 22.3924488 17.5587059 21.7387415 17.8611414 21.0850341 18.1635769 20.3184136 18.1577608 19.4448229 17.8436932 18.6009461 17.5470738 18.024495 17.0876045 17.7214125 16.4652854 17.41833 15.8429662 17.4302156 15.0926936 17.7630121 14.1970193L19.8489329 8.50890585zM26.8436018 17.3202472C27.3487393 18.0996001 27.8954763 18.5648855 28.4897558 18.7161032 28.7928383 18.7917121 29.0780924 18.7626318 29.3455182 18.6288622 29.6129439 18.4950927 29.7793421 18.2915304 29.8565985 18.0181752 29.9160264 17.7971647 29.8922552 17.5819702 29.7852849 17.3725918 29.6723718 17.1632134 29.4287173 16.8956743 29.0543212 16.5699746 28.5254125 16.1221374 28.1510165 15.6743003 27.9251903 15.2322792 27.6993641 14.7902581 27.6577646 14.2900763 27.8063344 13.7317339 27.9965039 13.0279898 28.4065567 12.4987277 29.0424356 12.1439477 29.6783146 11.7891676 30.4092783 11.7193748 31.2472123 11.9345692 31.8177206 12.0799709 32.3763432 12.3824064 32.9111947 12.8418757L32.3704004 14.865867C31.9603476 14.2086514 31.5086953 13.8189749 31.0035578 13.6910214 30.7539604 13.6270447 30.5221914 13.6444929 30.2963652 13.743366 30.0705391 13.8422392 29.9338548 13.9934569 29.8803696 14.2028353 29.8268845 14.4063977 29.8565985 14.5983279 29.9635688 14.784442 30.0705391 14.9647401 30.2963652 15.1973828 30.6469901 15.4649218 31.2234411 15.9185751 31.6275512 16.3664122 31.8652629 16.8200654 32.1029747 17.2737186 32.1386315 17.8146129 31.9722332 18.4427481 31.7642354 19.2279171 31.2947547 19.826972 30.563791 20.2340967 29.8387701 20.6412214 29.0543212 20.7400945 28.22233 20.5249 27.5745655 20.3562341 26.9327437 19.9898219 26.2849791 19.4198473L26.8436018 17.3202472z"/>
      <polygon points="42.562 14.342 47.631 14.959 47.406 16.715 44.411 16.349 44.208 17.954 47.002 18.292 46.788 19.99 43.995 19.652 43.757 21.525 46.752 21.892 46.526 23.671 41.457 23.055"/>
      <path d="M50.525637,21.3740458 C51.1793443,22.0370774 51.8152233,22.3802254 52.4273311,22.4151218 C52.7422992,22.43257 53.009725,22.345329 53.2474367,22.1592148 C53.4851485,21.9731007 53.6040044,21.740458 53.61589,21.4612868 C53.6277756,21.2344602 53.556462,21.0308979 53.4078922,20.8447837 C53.2533795,20.6586696 52.9621826,20.4492912 52.5283586,20.2050164 C51.9162508,19.8735005 51.4527129,19.5070883 51.1436876,19.1232279 C50.8287195,18.7335514 50.6860924,18.2508179 50.7158064,17.6808433 C50.7514631,16.953835 51.0486029,16.348964 51.5953399,15.8778626 C52.142077,15.4067612 52.8492695,15.1857506 53.7050319,15.2322792 C54.2933685,15.2613595 54.8995336,15.4474736 55.523527,15.7906216 L55.4165567,17.8844057 C54.8817052,17.3260632 54.3527965,17.0294438 53.8357734,17.0061796 C53.5802332,16.9945474 53.354407,17.0585242 53.1582948,17.1981098 C52.9621826,17.3376954 52.8611551,17.5179935 52.8492695,17.7331879 C52.8373839,17.9425663 52.9086975,18.1286805 53.0513245,18.2857143 C53.1939516,18.4427481 53.4613773,18.6230462 53.8595446,18.8149764 C54.5191947,19.1406761 55.0065039,19.5012723 55.3333575,19.8967648 C55.6602112,20.2922574 55.8087811,20.8157034 55.7731243,21.4612868 C55.7315248,22.2755362 55.3987283,22.9501999 54.7687921,23.4969102 C54.1447987,24.0436205 53.3960066,24.2937114 52.5402442,24.2471828 C51.8746513,24.2122864 51.161516,23.9796438 50.4127239,23.5492548 L50.525637,21.3740458 Z"/>
      <polygon points="59.137 15.535 64.8 15.418 64.836 17.198 63.017 17.233 63.166 24.224 61.08 24.265 60.931 17.274 59.178 17.309"/>
      <polygon points="73.946 14.656 79.004 13.929 79.265 15.68 76.276 16.111 76.513 17.71 79.301 17.309 79.556 19.001 76.769 19.402 77.048 21.269 80.038 20.839 80.305 22.613 75.248 23.34"/>
      <path d="M82.3314719,13.3246092 L84.4055072,12.8535078 L86.0457184,15.3311523 C86.5330275,16.0697928 86.9252519,16.7095602 87.2283344,17.2620865 L87.3353047,17.2388222 L86.9371375,15.8022537 L86.1408031,12.4521992 L88.0959824,12.0043621 L90.1343608,20.5481643 L88.0662684,21.0192657 L86.4260572,18.5416212 C85.9387481,17.8029807 85.5465237,17.1573973 85.2434411,16.604871 L85.1305281,16.6281352 L85.5286953,18.0647037 L86.3309725,21.4205743 L84.3757932,21.8684115 L82.3314719,13.3246092 Z"/>
      <polygon points="96.725 9.364 101.978 7.293 102.656 8.945 100.968 9.608 103.636 16.099 101.699 16.861 99.031 10.37 97.402 11.01"/>
      <path d="M107.041611,4.69356598 C107.9984,4.19920029 108.949248,4.15848782 109.882266,4.57724464 C110.815285,4.99600145 111.617562,5.82188295 112.283155,7.04907306 C112.948748,8.28207924 113.204288,9.40458015 113.043833,10.4223919 C112.883377,11.4402036 112.360411,12.1846601 111.474935,12.6441294 C110.553802,13.1210469 109.638612,13.1094148 108.723421,12.6150491 C107.808231,12.1148673 107.041611,11.300618 106.429503,10.1664849 C106.001622,9.38131589 105.746081,8.61359506 105.650997,7.86332243 C105.555912,7.1130498 105.645054,6.45583424 105.91248,5.90330789 C106.185848,5.34496547 106.560244,4.94365685 107.041611,4.69356598 Z M108.129142,6.22319157 C107.760689,6.41512177 107.588348,6.76990185 107.618062,7.29334787 C107.647776,7.81679389 107.861716,8.43911305 108.253941,9.16030534 C108.652108,9.89894584 109.062161,10.4282079 109.484099,10.7480916 C109.906037,11.0679753 110.280433,11.1435842 110.619173,10.9691021 C110.951969,10.7946201 111.100539,10.4398401 111.064882,9.9047619 C111.029226,9.36968375 110.815285,8.73573246 110.423061,8.01454017 C110.01895,7.26426754 109.602955,6.74082152 109.186959,6.44420211 C108.765021,6.1475827 108.414396,6.07197383 108.129142,6.22319157 Z"/>
      <polygon points="112.931 1.483 114.678 .326 119.7 7.596 117.953 8.753"/>
    </g>
    <g fill="#4A4F54" fill-rule="nonzero">
      <path d="M6.47910193 90.2114959C7.1711607 89.5592336 7.54105418 88.9250897 7.58878237 88.3030248 7.61264646 87.9829331 7.52912213 87.7051177 7.34417539 87.4635391 7.15922865 87.2219605 6.9205877 87.0890922 6.63421855 87.0709738 6.40154362 87.0528554 6.19273278 87.1192896 6.00182002 87.2642367 5.81090725 87.4152234 5.58419835 87.7111572 5.32765932 88.1459987 4.96969789 88.7620242 4.58787236 89.2210235 4.18218274 89.5290363 3.77649311 89.8430885 3.28131313 89.9759567 2.69067677 89.9336805 1.94492378 89.8793253 1.33638935 89.5652731.859107438 88.9975633.387791552 88.4298536.178980716 87.7111572.244606979 86.8354347.286369146 86.2375276.489213958 85.6275416.853141414 84.9994372L2.99494399 85.1564633C2.41027365 85.6879362 2.09407438 86.2194092 2.05827824 86.7448427 2.04038017 87.0045397 2.1000404 87.2340394 2.24322498 87.4393812 2.38640955 87.6447231 2.56539027 87.7534334 2.78016713 87.7655124 2.99494399 87.7836308 3.18585675 87.7171966 3.35290542 87.5722495 3.51995409 87.4333418 3.70490083 87.1615658 3.91371166 86.7629611 4.26570707 86.1046594 4.64156657 85.6094232 5.05322222 85.2893315 5.47084389 84.9632004 6.00778604 84.8303321 6.67001469 84.8786479 7.50525803 84.9390425 8.19135078 85.295371 8.73425895 85.9415938 9.27716713 86.5938561 9.51580808 87.3487892 9.45614784 88.2245117 9.40841965 88.9009319 9.15188062 89.6135888 8.69249679 90.368522L6.47910193 90.2114959zM1.10371442 78.7667088C1.25286501 77.6735655 1.78384114 76.8763561 2.68471074 76.3630015 3.58558035 75.849647 4.74298898 75.6926209 6.15097062 75.8979627 7.56491827 76.0972651 8.65073462 76.5804223 9.40245363 77.3353555 10.1541726 78.0902887 10.4584399 78.9720506 10.3212213 79.9806414 10.1720707 81.0315083 9.62319651 81.7743626 8.67459871 82.2273225 7.72003489 82.674243 6.59245638 82.8071112 5.29186318 82.6198878 4.39099357 82.493059 3.5975124 82.233362 2.91738567 81.8528757 2.23725895 81.4723893 1.748045 81.001311 1.44377778 80.4396407 1.13951056 79.871931 1.02615611 79.3163002 1.10371442 78.7667088zM3.01284206 78.8089851C2.95318182 79.2317476 3.15006061 79.5880761 3.5975124 79.8840099 4.04496419 80.1799437 4.68929477 80.3852855 5.52453811 80.5000354 6.3717135 80.6208247 7.05184022 80.6087458 7.56491827 80.4577591 8.07799633 80.3067725 8.36436547 80.041036 8.41805969 79.6605497 8.4717539 79.2800634 8.26294307 78.9418533 7.7975932 78.63988 7.33224334 78.3379067 6.68194674 78.1325649 5.85266942 78.0117756 4.99356198 77.8909863 4.31343526 77.9091047 3.81825528 78.0721703 3.3230753 78.2352358 3.05460422 78.4828539 3.01284206 78.8089851zM11.7709651 69.9007735C11.9022176 70.4684832 11.9201157 70.9818378 11.8246593 71.4468766 11.6158485 72.4494279 11.0192461 73.1500059 10.0288861 73.5606896 9.04449219 73.9653337 7.90498163 74.0378073 6.6222865 73.7599919 5.82880533 73.5908869 5.10691644 73.3009925 4.45661983 72.8963483 3.80035721 72.4917042 3.31710927 71.9783496 3.00687603 71.3562847 2.69664279 70.7342197 2.61311846 70.0819574 2.75630303 69.3934584 2.84579339 68.9706958 3.0486382 68.5418937 3.36483747 68.1010128L5.38135354 68.5298148C4.98162994 68.7955513 4.74298898 69.1216824 4.65946465 69.5082082 4.55804224 69.9913655 4.71912489 70.4201675 5.14271258 70.8006538 5.56630028 71.1811402 6.22852893 71.4710345 7.14133058 71.6642974 7.92287971 71.8334024 8.57317631 71.827363 9.09818641 71.646179 9.62319651 71.464995 9.93939578 71.1509428 10.0348522 70.685904 10.1064444 70.3476939 10.0229201 69.9430497 9.7962112 69.465932L11.7709651 69.9007735z"/>
      <polygon points="3.872 65.305 4.421 63.233 13.119 65.583 12.57 67.654"/>
      <polygon points="5.244 60.286 6.849 55.352 8.573 55.925 7.625 58.843 9.2 59.368 10.083 56.65 11.747 57.206 10.864 59.924 12.702 60.534 13.65 57.617 15.398 58.196 13.793 63.131"/>
      <path d="M7.85128742 52.5977049L8.85954545 50.1456819C9.16381267 49.4088671 9.58143434 48.8713547 10.1243425 48.5271051 10.6672507 48.1828556 11.2936832 48.0439479 12.0096061 48.1043426 12.7255289 48.1647372 13.4653159 48.3519606 14.2289669 48.6780918 15.5116621 49.2156042 16.4184977 49.9463795 16.9554399 50.8583388 17.492382 51.7702981 17.5222121 52.7909678 17.0568623 53.9203478L16.1559927 56.1066343 7.85128742 52.5977049zM10.2675271 51.3173382L15.3386474 53.455309 15.3983076 53.3164013C15.8159293 52.3017711 15.1179045 51.4079302 13.2982672 50.6409181 12.5942764 50.3449842 11.985742 50.2181555 11.4666979 50.2543923 10.9476538 50.2906291 10.5837264 50.562405 10.3808815 51.0576412L10.2675271 51.3173382zM11.985742 43.1882176L12.9403058 41.3099439 22.0265601 43.3392043 20.982506 45.398662 19.246393 44.8611496 18.4588779 46.4132922 19.8966896 47.5366328 18.9122957 49.4692617 11.985742 43.1882176zM14.6286905 43.4237568L17.1582847 45.398662 17.6773287 44.3719529 14.6286905 43.4237568zM15.3386474 36.8950946L16.746629 34.6484135C17.1702167 33.9780328 17.6773287 33.5190334 18.2679651 33.2714153 18.8586015 33.0298367 19.502932 32.9935999 20.2009568 33.1808233 20.8989816 33.3620073 21.5910404 33.6760595 22.2890652 34.12298 23.4643719 34.8779131 24.233989 35.7475962 24.6098485 36.7380685 24.979742 37.7285409 24.8425234 38.7371316 24.1981928 39.7698802L22.9453278 41.7689433 15.3386474 36.8950946zM17.9398338 36.0556089L22.5754343 39.0330654 22.6529927 38.9062366C23.237663 37.9761589 22.6947548 36.9796471 21.0362002 35.9106617 20.3918696 35.4999781 19.8131653 35.2644389 19.2941212 35.2161232 18.7750771 35.161768 18.3753535 35.3671099 18.0889844 35.8200698L17.9398338 36.0556089zM23.4524399 25.1422948L24.991674 23.4210471 28.3923076 24.8161637 26.6800588 21.5306944 28.225259 19.8034073 34.9012397 25.9213858 33.5230882 27.4614495 31.0292902 25.1724921C30.3968916 24.5927034 29.7823912 23.9827174 29.1738567 23.3304552L29.0724343 23.445205C29.3349394 23.8075729 29.6571047 24.3511248 30.0448962 25.0637817L31.3693535 27.5399626 28.8099293 26.4407799C28.0641763 26.1206882 27.5033701 25.8489123 27.1215445 25.625452L27.0141561 25.7462413C27.6644527 26.2414775 28.3326474 26.8031478 29.0127741 27.4252127L31.5065721 29.7141702 30.1284206 31.2542339 23.4524399 25.1422948z"/>
      <polygon points="30.737 17.406 34.615 14.012 35.802 15.401 33.505 17.406 34.591 18.674 36.727 16.802 37.872 18.149 35.736 20.021 37.001 21.507 39.298 19.501 40.503 20.909 36.625 24.303"/>
      <polygon points="37.18 12.019 39.024 10.768 40.957 12.683 39.96 10.14 41.84 8.872 42.914 13.027 47.155 16.234 45.211 17.551 42.496 15.014 43.755 18.535 41.822 19.84 40.533 14.634"/>
      <polygon points="44.787 7.223 46.666 6.239 50.795 14.332 48.915 15.316"/>
      <path d="M57.0829164 11.4206292C56.6831928 11.8433918 56.2655712 12.1393256 55.8300514 12.3084306 54.8874197 12.676838 53.980584 12.5560487 53.1035785 11.9400233 52.226573 11.3239978 51.5524123 10.3999596 51.0810964 9.16186913 50.7887612 8.40089648 50.6336446 7.6278449 50.6097805 6.85479332 50.5859164 6.08174174 50.7529651 5.38720321 51.0930285 4.78325666 51.4330918 4.17931011 51.9342378 3.75050806 52.5785684 3.49685051 52.978292 3.33982441 53.4436419 3.27942976 53.980584 3.30358762L54.720371 5.2482955C54.2848512 5.05503261 53.8791616 5.03087475 53.5152342 5.17582192 53.0618163 5.35096642 52.7933453 5.72541328 52.7038549 6.29312303 52.6203306 6.86083279 52.7396511 7.57952918 53.0737484 8.45525167 53.3601175 9.20414539 53.724045 9.75977622 54.1595647 10.1100652 54.5950845 10.4603542 55.0306042 10.5509462 55.4601579 10.3818412 55.7763572 10.2550124 56.0686924 9.96511804 56.3371635 9.51215813L57.0829164 11.4206292zM58.9264178 1.6970898L60.960832 1.23809042 65.2384711 9.60878958 63.0071781 10.1161047 62.3031873 8.41901488 60.6207686 8.7995012 60.6923609 10.6354987 58.5982865 11.1126165 58.9264178 1.6970898zM60.4417879 3.90753417L60.5611084 7.1386482 61.6707888 6.88499065 60.4417879 3.90753417zM66.3421855.326131136L68.472056.217420757 69.6413967 3.0438906C69.9874261 3.8833763 70.2618632 4.61415163 70.458742 5.23017711L70.5661304 5.22413764 70.4348779 3.69011341 70.2558972.12078931 72.2664472.0181183964 72.725831 9.11959288 70.6019265 9.22830325 69.4325859 6.39579394C69.0865565 5.55630824 68.8121194 4.82553292 68.6152406 4.20346797L68.5018861 4.20950744 68.6331387 5.74353167 68.8121194 9.31889524 66.8015693 9.42156615 66.3421855.326131136zM77.7432571.368407394L79.8134674.616025479 81.1080946 9.94699965 78.8410055 9.6752237 78.7336171 7.83922619 77.0213682 7.63388437 76.4844261 9.39136882 74.3485895 9.13771127 77.7432571.368407394zM78.4472479 2.95933809L77.5046162 6.05154441 78.6381607 6.18441265 78.4472479 2.95933809zM90.3375335 3.06804846L92.7836033 4.04040241C93.5174242 4.33029675 94.0543664 4.74701987 94.4063618 5.29057176 94.7523912 5.83412365 94.9075078 6.46826753 94.8657456 7.19300339 94.8239835 7.91773924 94.6509688 8.67267243 94.3467016 9.45176348 93.8395895 10.7623275 93.1415647 11.6924052 92.2466612 12.2540755 91.3577236 12.8097063 90.3494656 12.8640615 89.2278531 12.417141L87.0502544 11.547458 90.3375335 3.06804846zM91.6440927 5.49591359L89.6335427 10.665696 89.7707612 10.7200512C90.7849853 11.1246954 91.6500588 10.3939201 92.3719477 8.53980419 92.6523508 7.8211078 92.7657052 7.19904285 92.717977 6.67964882 92.6702489 6.15421532 92.3958118 5.7918474 91.9006318 5.5985845L91.6440927 5.49591359z"/>
      <polygon points="98.893 6.8 103.343 9.379 102.443 10.974 99.812 9.452 98.988 10.907 101.44 12.327 100.569 13.867 98.117 12.447 97.157 14.15 99.788 15.672 98.875 17.291 94.424 14.712"/>
      <path d="M107.823949 24.055191C107.269109 23.8981649 106.815691 23.6626258 106.45773 23.354613 105.694079 22.6842323 105.371914 21.8145493 105.4972 20.7455639 105.622487 19.6765785 106.111701 18.6377905 106.970808 17.6291997 107.501784 17.0071348 108.098387 16.5058592 108.760615 16.1253728 109.42881 15.738847 110.102971 15.5637025 110.795029 15.5878604 111.487088 15.6120183 112.089657 15.8535969 112.614667 16.3125963 112.936832 16.5964511 113.211269 16.9829769 113.437978 17.4721736L112.089657 19.0484741C112.05386 18.5653169 111.886812 18.1969095 111.588511 17.9372125 111.218617 17.6171208 110.771165 17.5506867 110.234223 17.7379101 109.703247 17.9251335 109.130509 18.3780935 108.521974 19.0907504 108.00293 19.7007364 107.692697 20.2805251 107.591275 20.8361559 107.489852 21.3917867 107.615139 21.8205888 107.967134 22.1286015 108.223673 22.3520617 108.611465 22.4788905 109.136475 22.5030484L107.823949 24.055191zM117.053388 20.8482348L118.473302 22.394338 113.503604 30.360393 111.946472 28.6693426 113.038254 27.2017525 111.862948 25.9213858 110.32968 26.9118582 108.868004 25.3174393 117.053388 20.8482348zM115.931776 23.2881789L113.241099 25.027545 114.016682 25.8730701 115.931776 23.2881789zM121.748649 26.2233591L123.693573 28.8384477C124.135059 29.4303153 124.337904 30.0221829 124.308073 30.62009 124.278243 31.2179971 123.985908 31.7253122 123.431068 32.1541142 122.971684 32.5044032 122.488436 32.6674688 121.969392 32.6493504 121.450348 32.631232 120.90744 32.4319296 120.328736 32.0454038 120.716527 32.7822186 120.603173 33.500915 120.000604 34.2075325L118.085511 36.4421347 116.701393 34.5819793 118.4912 32.7942976C118.789501 32.4862848 118.980414 32.2205483 119.04604 31.9910486 119.117633 31.761549 119.063938 31.5260098 118.890924 31.2965101L118.777569 31.139484 115.818421 33.3922046 114.55959 31.6951148 121.748649 26.2233591zM121.617397 28.9833948L120.078163 30.1610906 120.3526 30.529498C120.549478 30.7952345 120.776187 30.9341422 121.032726 30.9583001 121.289265 30.9824579 121.539838 30.8979054 121.778479 30.7167214 122.01712 30.5355375 122.154339 30.3362351 122.184169 30.1188144 122.213999 29.9074331 122.136441 29.6779334 121.951494 29.4303153L121.617397 28.9833948zM126.831702 33.3076521L128.203887 35.5724517C128.615543 36.2488718 128.800489 36.913213 128.752761 37.5594358 128.710999 38.2056586 128.45446 38.8035657 127.983144 39.3531571 127.517794 39.9087879 126.927158 40.3979846 126.223167 40.8388656 125.035928 41.5756804 123.926248 41.8897326 122.882194 41.7931011 121.83814 41.6964697 121.002896 41.1287599 120.370498 40.0839324L119.147463 38.0607115 126.831702 33.3076521zM126.431978 36.04353L121.748649 38.9485129 121.826208 39.0753417C122.39298 40.0174983 123.520558 39.9631431 125.197011 38.924355 125.847308 38.5197108 126.306691 38.0969483 126.581129 37.6500278 126.855566 37.2031074 126.855566 36.7501474 126.575163 36.2851086L126.431978 36.04353z"/>
      <polygon points="131.294 41.032 132.267 42.935 124.272 47.126 123.3 45.224"/>
      <path d="M134.909698,48.3036449 C135.339252,49.3122356 135.303455,50.2785501 134.802309,51.1905094 C134.295197,52.1024687 133.394328,52.845323 132.087769,53.4190722 C130.775243,53.9928214 129.605903,54.155887 128.573781,53.9143083 C127.541658,53.6727297 126.825736,53.0808621 126.426012,52.144745 C126.00839,51.172391 126.091915,50.2483528 126.676585,49.3605514 C127.255289,48.4727499 128.150193,47.7661325 129.361296,47.2346595 C130.196539,46.8662521 131.001952,46.6669498 131.783501,46.6367524 C132.559084,46.6065551 133.221313,46.7454628 133.764221,47.0655545 C134.307129,47.3856462 134.694921,47.7963298 134.909698,48.3036449 Z M133.263075,49.2759989 C133.096027,48.8834336 132.744031,48.6841312 132.207089,48.6720523 C131.670147,48.6599734 131.01985,48.8230389 130.244267,49.161249 C129.456752,49.5054985 128.884014,49.8739059 128.526052,50.2725107 C128.168091,50.6711154 128.060702,51.0455622 128.209853,51.4018907 C128.359004,51.7521797 128.710999,51.9333637 129.265839,51.9454426 C129.82068,51.9575215 130.476942,51.7884165 131.246559,51.4562459 C132.046006,51.1059569 132.612779,50.73151 132.946876,50.3268658 C133.286939,49.9282611 133.388362,49.5779721 133.263075,49.2759989 Z"/>
      <polygon points="137.135 54.271 137.821 56.282 131.056 58.655 131.998 61.421 130.262 62.031 128.627 57.254"/>
      <path d="M140.320882 64.0122946C140.601285 65.0752406 140.42827 66.0234366 139.795871 66.8508434 139.163473 67.6782502 138.161181 68.2821967 136.783029 68.6506041 135.404878 69.025051 134.223605 69.012972 133.239211 68.6143673 132.254817 68.2157626 131.634351 67.5272635 131.371846 66.5428307 131.103375 65.522161 131.318152 64.6162412 132.022142 63.8250712 132.726133 63.0339012 133.710527 62.4661915 134.987256 62.1219419 135.870228 61.8864028 136.693539 61.8078897 137.469122 61.8924422 138.238739 61.9769948 138.877104 62.2125339 139.366318 62.6111386 139.861498 63.0097434 140.177697 63.4747822 140.320882 64.0122946zM138.543006 64.730991C138.435618 64.3203074 138.119419 64.0666498 137.588443 63.9760578 137.063433 63.8854659 136.389272 63.9519 135.577893 64.1693207 134.748615 64.392781 134.128149 64.6766358 133.716493 65.0148459 133.298871 65.353056 133.143755 65.7154239 133.239211 66.0898708 133.334668 66.4582781 133.656833 66.6877778 134.205707 66.7844093 134.748615 66.8750013 135.428742 66.8146066 136.240121 66.5911464 137.081331 66.3616467 137.695831 66.0777918 138.083623 65.7275028 138.47738 65.3772138 138.626531 65.0450432 138.543006 64.730991zM134.223605 75.6805419C133.919338 75.5235158 133.674731 75.3423319 133.49575 75.13699 133.31677 74.9256087 133.203415 74.6900696 133.149721 74.4243331 133.054264 73.917018 133.161653 73.4097029 133.471886 72.8903089 133.782119 72.3709149 134.277299 71.9360733 134.963392 71.5918238 135.649485 71.2475743 136.395238 70.9939167 137.194685 70.8368906 138.560904 70.5771936 139.724279 70.6677856 140.678843 71.1207455 141.639373 71.5737054 142.212111 72.3225991 142.40899 73.3674267 142.540242 74.0619652 142.480582 74.7263064 142.241941 75.3544108L140.279119 75.7288577C140.613217 75.1128322 140.744469 74.5813592 140.654979 74.1283993 140.54759 73.5425712 140.207527 73.1620848 139.640755 72.9688219 139.073983 72.7815985 138.352094 72.7695196 137.469122 72.9386246 136.645811 73.0956507 136.013412 73.3191109 135.565961 73.6090053 135.118509 73.8988996 134.927596 74.2069124 134.987256 74.5451224 135.017086 74.7142275 135.124475 74.8289773 135.309421 74.8833325 135.488402 74.9376877 135.744941 74.9316482 136.073073 74.8652141L136.621947 74.7625432 136.490694 74.0740441 138.083623 73.7720708 138.578803 76.4052778 133.823882 77.3172371 133.632969 76.3026069 134.223605 75.6805419z"/>
      <polygon points="143.101 78.531 143.381 80.657 134.462 81.859 134.182 79.733"/>
      <path d="M143.876632,85.4342787 L144.037714,87.5420521 L135.249761,90.6402979 L135.070781,88.3332221 L136.830758,87.8681833 L136.699505,86.1288172 L134.8918,85.9355543 L134.724751,83.7673862 L143.876632,85.4342787 Z M141.502154,86.6361323 L138.322264,86.2979222 L138.411754,87.4514602 L141.502154,86.6361323 Z"/>
    </g>
    <path fill="#C52127" d="M4.59966213 8.11535199C5.67148753 7.50737913 8.38473696 7.59966073 10.5283878 7.75708227 12.4944218 6.6605598 15.0300544 5.42832909 18.043415 4.73350297 15.2015465 3.1538592 7.71714286 2.21475827 5.15701134 1.89448685 2.43151247 1.55250212 2.28451927 1.43850721.465478458.531976251L.349108844.928244275C.594097506 3.21899915 8.29286621 5.30347752 6.93930385 5.8408821 5.57961678 6.37285835 4.94877098 7.23053435 4.59966213 8.11535199zM55.4715578 8.11535199C54.3997324 7.50737913 51.686483 7.59966073 49.5428322 7.75708227 47.5767982 6.6605598 45.0411655 5.42832909 42.027805 4.73350297 44.8696735 3.1538592 52.3540771 2.21475827 54.9142086 1.89448685 57.6397075 1.55250212 57.7867007 1.43850721 59.6057415.531976251L59.7221111.928244275C59.4771224 3.21899915 51.7783537 5.30347752 53.1319161 5.8408821 54.4916032 6.37285835 55.122449 7.23053435 55.4715578 8.11535199z" transform="translate(43.8 156.336)"/>
    <g fill="#006937" fill-rule="nonzero" transform="translate(74.622 99.338)">
      <path d="M46.9036685 44.412077C45.1736648 43.4533288 42.088693 46.5260871 40.9635857 47.0024838 39.8384783 47.4729254 39.1367985 47.9493221 36.7051149 47.7766283 36.4873522 48.0505564 34.0617175 49.7596293 36.9894162 49.8489537 39.9171149 49.9382781 41.93142 47.9433671 43.9094313 47.6158444 45.8934915 47.2883218 50.1761582 48.2172952 51.3738531 48.949755 51.0048663 47.0739433 49.8858079 45.6685732 46.9036685 44.412077zM22.9558192 55.5538035C23.3792467 55.3334701 18.3283616 55.4168395 17.8686403 55.625263 17.408919 55.8336865 15.6668173 56.3041282 13.3803089 56.9710835 11.0938004 57.6380388 2.56476083 58.3943185 5.36543126 61.2050587 6.17599247 61.2229236 9.33355179 61.2884281 9.69044068 61.3122479 10.0473296 61.3301128 7.70033145 60.585743 10.652226 59.9247427 10.652226 59.9247427 12.7754124 59.6805894 15.1949981 58.88858 18.7215443 57.7333181 22.2964821 55.905146 22.9558192 55.5538035zM28.6841883 72.0192625C27.9885574 72.8410467 20.1370019 74.2523717 19.8889944 75.2230299 19.3869303 77.2060309 15.7877966 66.0345296 2.81276836 63.4143481 2.81276836 63.4143481-2.84301318 60.9192207 2.48612429 60.1153014 2.36514501 60.2879951.00604896422 61.4075272 8.40806026 62.8843568 14.6929341 64.2599521 24.0567307 70.0005317 28.6841883 72.0192625zM28.3817401 74.1570924C26.9783804 74.6156242 25.9621544 74.4548403 24.6313823 74.9610117 23.3006102 75.4671832 20.0886102 75.8959401 21.0624934 78.4387072 22.0363766 80.9814743 28.4845725 76.6343549 28.3817401 74.1570924zM60.2234878 7.15785956C57.1808588 9.30164445 57.1748098 13.4641601 57.0719774 14.7385211 57.1869077 14.6015571 57.307887 14.4645931 57.4288663 14.333584 57.8039021 13.910782 58.1970847 13.5117998 58.5963164 13.1187725 59.0862825 12.630466 59.6125424 12.1778892 60.1448512 11.7312673 60.4775443 11.2786905 60.7739435 10.8022939 61.0642938 10.3378071 61.2457627 10.0162394 61.4272316 9.69467168 61.5482109 9.34928411 61.6752392 9.00389655 61.7417778 8.64064411 61.8083164 8.24761688L61.8627571 8.24761688C61.9474426 8.62277923 61.9958343 9.03367134 61.9292957 9.43860848 61.880904 9.82568076 61.7357288 10.1889332 61.5784557 10.5462307 61.6873371 10.4569063 61.8022674 10.3675819 61.9111488 10.2723026 61.9837363 10.1948882 62.050275 10.1174737 62.1168136 10.0281493 62.4374087 9.61725723 62.6793672 9.14681554 62.8608362 8.65850898 63.0423051 8.16424746 63.1874802 7.65807603 63.399194 7.1519046 63.5020264 6.8958414 63.6169567 6.63977821 63.7802787 6.39562493 63.9315028 6.15742661 64.1553145 5.91922829 64.4456648 5.83585887L64.4698606 5.88349854C64.076678 6.25866089 64.0222373 6.78865216 63.8831111 7.30077855 63.7621318 7.82481486 63.5988098 8.35480612 63.3508023 8.86097755 63.2721657 9.01580646 63.1814313 9.16468041 63.0906968 9.31950932 63.3145085 9.14086058 63.5322712 8.95625688 63.7560829 8.77760814 64.6573785 8.11065284 65.5344783 7.39605788 66.5628023 6.8958414L66.5869981 6.94943603C65.6191638 7.50324712 64.7904557 8.27143671 63.9375518 8.99198663 63.4536347 9.41478865 62.9757665 9.84950059 62.4978983 10.2782576 62.6975141 10.212753 62.9152768 10.1770233 63.1209416 10.1293836L63.4778305 10.1115187 63.6532505 10.1055638 63.8286704 10.1353386C64.3125876 10.1591584 64.7299661 10.4390414 65.0566102 10.7248794L65.0263653 10.7665641C64.2218531 10.3914018 63.393145 10.4628613 62.6430734 10.8082488 62.0079322 11.0881319 61.3788399 11.4394744 60.7799925 11.8563214 60.5803766 12.0468801 60.3747119 12.2374388 60.175096 12.4279974 60.1569492 12.4458623 60.1388023 12.4637272 60.1206554 12.481592 59.8605499 12.773385 59.5641507 13.0354031 59.2858983 13.3093312 58.995548 13.5713494 58.7051977 13.8333675 58.4087985 14.0894307 58.0035179 14.4229084 57.5921883 14.7444761 57.1748098 15.0600889 57.3381318 15.0719988 57.6163842 15.0600889 57.8643917 14.9231248 59.007646 14.3038092 63.7681808 12.0409251 65.9458079 10.4926361 68.123435 8.94434697 69.6780188 5.06171433 70.7910282 4.03150659 67.2160904 3.56701986 63.3024105 4.99025483 60.2234878 7.15785956zM51.8335744.428756978C51.5432241 2.75119061 50.2971375 4.59127264 51.0169642 7.4496525 51.0169642 7.4496525 52.4989605 13.0830428 54.9729868 15.5364855 55.0334765 15.5781702 55.1302599 15.5900801 55.2451902 15.5722153 55.3359247 15.0124492 55.4085122 14.4645931 55.4387571 13.9167369 55.4327081 13.7023584 55.4327081 13.482025 55.4206102 13.2676465 55.3843164 13.1128176 55.3419736 12.9579887 55.281484 12.8091147 55.106064 12.3922677 54.8036158 12.0706999 54.4890697 11.772952 54.1624256 11.4692492 53.7752919 11.2191409 53.3337175 10.9690327L53.3458154 10.9154381C53.8660264 10.8737534 54.3983352 11.0404922 54.8399096 11.3441951 55.0516234 11.487114 55.2209944 11.6776727 55.3601205 11.8920512 55.3601205 11.8682314 55.3540716 11.8444115 55.3540716 11.8265467 55.2996309 11.3918347 55.2149454 10.9630777 55.1000151 10.5402757 55.0697702 10.4569063 55.0395254 10.3675819 55.0092806 10.2842125 54.9064482 10.0221944 54.7915179 9.76017622 54.6644896 9.50411302 54.5132655 9.23613991 54.3499435 8.98007672 54.1382298 8.75378831 53.8660264 8.46199537 53.5333333 8.22379705 53.1582976 8.06896814 52.7832618 7.90222931 52.3779812 7.8188599 51.9727006 7.71167065L51.9847985 7.65807603C52.3900791 7.73549049 52.8135066 7.78313015 53.2187872 7.92604914 53.5212354 8.02728343 53.8115857 8.17615738 54.0716911 8.36671604 54.0656422 8.34885116 54.0535443 8.33694125 54.0474953 8.31907637 53.8720753 7.99155368 53.6664105 7.72358057 53.5091375 7.28886863 53.4667947 7.1519046 53.4486478 7.00898561 53.4425989 6.87202157 53.1643465 6.42539972 52.8739962 5.97877787 52.577597 5.54406593L52.6259887 5.51429114C52.9042411 5.86563366 53.1824934 6.21697619 53.4486478 6.57427367 53.4667947 6.39562493 53.4970395 6.22293115 53.5393823 6.06214728 53.7450471 5.32968744 54.095887 4.68059701 53.8236836 3.96600205L53.8720753 3.94218222C54.101936 4.24588508 54.2047684 4.66273214 54.1684746 5.04980441 54.1442787 5.44283164 54.0595932 5.81203904 54.0051525 6.15742661 53.9507119 6.50876913 53.9446629 6.83629182 54.0474953 7.12212981 54.1382298 7.38414796 54.3922863 7.72358057 54.5435104 8.05705822 54.6705386 8.3012115 54.77942 8.54536478 54.8883013 8.79547302 54.9064482 8.39053587 54.9790358 8.0034636 55.106064 7.62234628 55.2330923 7.23527401 55.4629529 6.88393149 55.7109605 6.58618359L55.7593522 6.61000342C55.4690019 7.34841821 55.3843164 8.08087805 55.4206102 8.81333789 55.4810998 9.49815806 55.5899812 10.212753 55.6988625 10.9392579 55.9105763 11.6657628 56.0618004 12.4220425 56.0073597 13.190232 56.0013107 13.2914663 55.9831638 13.3927006 55.9771149 13.4939349 55.9468701 14.1549352 55.8319397 14.8159356 55.6020791 15.4412062 56.2372203 15.0898637 57.0598795 14.053701 57.0477815 12.1302495 57.0054388 7.96773385 56.0194576 3.41219095 51.8335744.428756978zM55.2088964 19.3059739C55.2088964 19.3059739 54.5858531 20.6875242 54.4588249 21.2532452 54.4225311 21.4080741 54.4830207 21.5986328 54.5919021 21.8011014 54.6402938 21.717732 54.6826365 21.6343625 54.7370772 21.5569481 54.8338606 21.425939 54.936693 21.2949299 55.0334765 21.1639209 55.3722185 20.6279746 55.8077439 20.1396681 56.2795631 19.722821 56.6908927 19.3595686 57.1264181 19.0320459 57.5679925 18.7223881L58.4753371 18.0792526C58.7717363 17.8291444 59.0499887 17.5671262 59.2919473 17.2634233 59.5399548 16.9537655 59.7395706 16.6143329 59.8605499 16.2332156 59.9875782 15.8580532 60.0420188 15.4531161 60.0904105 15.0541339L60.1448512 15.0600889C60.1267043 15.465026 60.1085574 15.8759181 60.011774 16.2749003 59.9210395 16.6798375 59.7395706 17.0669097 59.50971 17.4182523 59.503661 17.4242072 59.4976121 17.4301622 59.4915631 17.4420721 59.6609341 17.3646576 59.8303051 17.2931981 60.005725 17.2336486 60.0420188 17.2098287 60.0843616 17.1919638 60.1206554 17.168144 61.2639096 16.5369185 62.4434576 15.9771524 63.6351036 15.4471611 64.8267495 14.9231248 66.0365424 14.4467282 67.2221394 13.9167369L67.2463352 13.9643766C66.0909831 14.5598724 64.911435 15.1077285 63.7560829 15.6913144 62.9334237 16.1022065 62.1168136 16.5369185 61.3183503 16.9894953 61.5845047 16.9716304 61.8446102 16.9775854 62.1047156 16.9954502 63.2056271 17.0669097 64.2581469 17.3408378 65.3409115 17.4242072L65.3409115 17.4778018C64.2520979 17.4658919 63.1693333 17.2634233 62.0986667 17.2634233 61.5603089 17.2515134 61.0159021 17.311063 60.5077891 17.453982 60.4533484 17.4837568 60.3989077 17.5135316 60.344467 17.5433064 59.6004444 17.9958832 58.8806177 18.4901447 58.1849868 19.0022711 58.832226 18.8295773 59.5157589 18.7878926 60.1690471 18.8950818 60.5924746 18.9546314 60.9917062 19.0915955 61.3788399 19.2404694 61.7659736 19.3952983 62.1289115 19.5977669 62.5039473 19.7585508L62.4858004 19.8121454C62.0865687 19.6811363 61.711533 19.5143975 61.3243992 19.4012533 60.9312166 19.294064 60.5380339 19.1928297 60.1327533 19.1749649 59.33429 19.0975504 58.5297778 19.2464244 57.822049 19.585857 57.64058 19.6573165 57.477258 19.7764156 57.307887 19.871695 57.132467 19.9610193 56.9812429 20.0860734 56.8239699 20.2111276 56.5033748 20.437416 56.2130245 20.711344 55.9166252 20.9674072 55.7654011 21.0924614 55.626275 21.2294254 55.4871488 21.3663894 55.2572881 21.6224526 55.0455744 21.8904257 54.8338606 22.1703088 55.118162 22.5514261 55.4629529 22.8729938 55.4629529 22.8729938 59.2496045 23.2481562 63.7560829 19.6811363 64.911435 18.7521628 66.0667872 17.8291444 70.7244896 13.1068626 71.2870433 12.5530515 69.6114802 12.1302495 58.5781695 12.7257453 55.2088964 19.3059739zM49.2385687 12.8746193C48.857484 13.9405568 46.7101017 17.590946 46.66171 21.3247047 46.6314652 23.3851202 48.2223427 25.1358779 49.4018908 26.7139417 49.4865763 26.4042839 49.5652128 26.0886711 49.6378004 25.7730584 49.7890245 25.1537427 49.9039548 24.5284721 49.9644444 23.9091565L49.9825913 23.4446698C49.9825913 23.2898409 49.9644444 23.1409669 49.9523465 22.992093 49.9160527 22.7003 49.87371 22.414462 49.7587797 22.1703088 49.6680452 21.9142456 49.4926252 21.6998671 49.2627646 21.5033535 49.0389529 21.3068398 48.7425537 21.1162812 48.5368889 20.8423531L48.5731827 20.8006684C48.863533 20.9495424 49.1720301 21.0150469 49.4805273 21.1817857 49.7890245 21.3306597 50.0914727 21.5986328 50.2608437 21.9321104 50.2910885 21.9857051 50.3092354 22.0452546 50.3334313 22.0988493 50.3152844 21.6224526 50.2547947 21.1520109 50.1096196 20.6934792 49.8918569 19.8955148 49.4139887 19.1928297 48.8998267 18.5199195L48.9421695 18.4841897C49.5107721 19.1035054 50.0672768 19.7823706 50.369725 20.5981998 50.5028023 20.9316775 50.5874878 21.2711101 50.6479774 21.6224526 50.6479774 21.6224526 50.6540264 21.6164977 50.6540264 21.6164977 50.7266139 20.7530287 50.6963691 19.8836049 50.539096 19.0260909 50.3939209 18.0554328 50.0249341 17.1324143 49.7890245 16.1617561L49.8434652 16.1498462C50.1459134 17.0847746 50.5874878 17.9899282 50.8112994 18.9724963 50.9927684 19.728776 51.0835028 20.5088755 51.0895518 21.288975 51.1137476 21.2770651 51.1318945 21.2651551 51.1560904 21.2472903 51.4766855 21.0269568 51.7912316 20.7887585 52.1118267 20.5565151L52.1541695 20.5922449C51.9545537 20.9376324 51.7186441 21.2592002 51.4585386 21.568858 51.3375593 21.711777 51.2347269 21.8785158 51.0714049 21.9797501 51.0290621 22.7122099 50.9443766 23.4565797 50.7629077 24.1711747 50.8596911 24.11758 50.9504256 24.0758953 51.047209 24.0282557 51.4403917 23.8496069 51.8517213 23.7066879 52.1057778 23.3613004L52.1541695 23.3851202C51.9606026 23.8019673 51.5250772 24.0282557 51.1802863 24.266454 50.9383277 24.4153279 50.720565 24.5820668 50.5814388 24.7785804 50.5632919 24.832175 50.551194 24.8857696 50.5330471 24.9334093 50.5088512 24.9989138 50.4786064 25.0644184 50.4544105 25.1358779 50.4060188 25.3204816 50.3576271 25.4991303 50.2910885 25.677779 50.2789906 25.7075538 50.2668927 25.7373286 50.2608437 25.7611485 50.212452 25.9517071 50.1519623 26.1422658 50.0733258 26.3268695 50.0067872 26.4757434 49.9402486 26.6186624 49.867661 26.7615814 49.8555631 26.7913562 49.8434652 26.8270859 49.8253183 26.8568607 49.7890245 26.9402301 49.7466817 27.0235996 49.704339 27.1129239 49.8071714 27.2558429 49.9039548 27.4047169 49.9946893 27.5476359 49.9946893 27.5476359 50.9383277 28.661213 51.7972806 27.2856177 52.6562335 25.9278873 55.620226 20.6756143 49.2385687 12.8746193zM52.2267571 27.666735C52.8135066 27.4642665 53.4305009 27.4225817 54.0293484 27.3451673L54.4830207 27.2915727C54.6221469 27.2677528 54.7552241 27.243933 54.8822524 27.1843834 55.1423578 27.0831491 55.3782674 26.9164103 55.6020791 26.7139417 56.0436535 26.3149596 56.4368362 25.832608 56.8784105 25.403851L56.9207533 25.4395807C56.5336196 25.9159774 56.2190734 26.4281038 55.8016949 26.9045004 55.614177 27.106969 55.4024633 27.2975276 55.1484068 27.4404466 56.1101921 27.3273024 57.0780264 27.2022483 57.9732731 26.8985454 58.2212806 26.7734913 58.4571902 26.6305723 58.6870508 26.4757434 58.832226 26.3268695 58.9471563 26.1422658 59.0318418 25.9457522 59.2193597 25.4812654 59.2677514 24.9631841 59.3705838 24.4570126L59.4250245 24.4689226C59.3524369 24.975094 59.3524369 25.4931753 59.1891149 26.0053017 59.170968 26.0648513 59.1407232 26.1184459 59.1165273 26.1779955 59.4673672 25.9159774 59.8061092 25.6360943 60.1388023 25.3443014 60.5017401 25.0346436 60.85258 24.695211 61.2760075 24.4391478L61.3062524 24.4867874C60.9191186 24.7607155 60.5985235 25.1239679 60.2597815 25.4634006 59.9210395 25.8028332 59.5762486 26.1482207 59.2072618 26.4578785 58.4571902 27.0712392 57.5921883 27.6250503 56.5820113 27.815609 55.6020791 27.9942577 54.6281959 28.0776271 53.6785085 28.1133569 53.6361657 28.1133569 53.593823 28.1193118 53.5514802 28.1193118 53.5272844 28.1252668 53.5030885 28.1252668 53.4788927 28.1312218 52.9647307 28.2026813 52.4566177 28.244366 52.0150433 28.3932399 51.9243089 28.4230147 51.8396234 28.4587444 51.7549379 28.5004292 51.4282938 29.1018799 51.0956008 29.7688352 50.7689567 30.5251149 56.636452 33.2703505 65.1291977 24.3021837 65.3590584 22.8670389 59.340339 24.4629676 55.7230584 22.0809844 52.2267571 27.666735zM46.322968 34.7888648C46.4378983 34.4375223 46.5165348 34.0861798 46.5649266 33.7229273 46.6314652 33.1869811 46.6435631 32.639125 46.5830734 32.0853139 46.5286328 31.5612776 46.4137024 31.0372413 46.2866742 30.50725 45.5607985 30.1678174 44.8409718 29.792655 44.1816347 29.3222134 43.5041507 28.8339068 42.8629605 28.238411 42.5121205 27.4821313L42.5605122 27.4583115C42.9657928 28.1729065 43.6251299 28.7028977 44.3207608 29.1256997 44.9377552 29.5008621 45.5970923 29.8164749 46.2685273 30.0904029 46.0810094 29.7033307 45.8692957 29.3222134 45.645484 28.947051 44.9921959 27.8632486 44.2179284 26.8330409 43.6432768 25.6658691 43.0746742 24.5106073 42.6451977 23.1886066 42.8387646 21.8963807L42.8932053 21.8963807C43.0141846 23.1707417 43.5222976 24.3200486 44.1332429 25.4098059 44.7502373 26.5055182 45.4156234 27.5952755 46.0265687 28.7326725 46.1838418 29.0244655 46.3350659 29.3281683 46.4802411 29.6318712 46.492339 29.6199613 46.4983879 29.6080513 46.5104859 29.6020964 46.7705913 29.095925 47.0306968 28.5778436 47.1274802 28.0299875 47.1758719 27.7501044 47.1516761 27.4702214 47.1093333 27.1784285 47.0669906 26.8866355 47.0306968 26.5888876 47.0427947 26.2970947L47.0972354 26.2970947C47.1153823 26.5888876 47.169823 26.8747256 47.2363616 27.1605636 47.3029002 27.4464016 47.3573409 27.7501044 47.327096 28.0538073 47.2726554 28.667168 47.0367458 29.226934 46.7947872 29.7688352L46.7826893 29.792655 46.7584934 29.8164749C46.6919548 29.8819794 46.66171 29.947484 46.6435631 30.0129885 46.9641582 30.7752231 47.2061168 31.5672325 47.2605574 32.4009267 47.2726554 32.5974403 47.2726554 32.7939539 47.2605574 32.9904675 47.2666064 33.055972 47.2726554 33.1214766 47.2726554 33.1869811 47.2787043 33.3954047 47.2605574 33.6038282 47.2424105 33.8182067 48.9482185 31.787566 49.6015066 29.2864836 47.4662222 25.4634006 44.2360753 19.6751813 43.4073672 19.008226 42.2883089 17.5790361 42.258064 17.5373514 42.2278192 17.5016217 42.1975744 17.459937 37.7152919 29.0601952 45.9176874 35.1521173 45.9176874 35.1521173 46.0689115 35.0270632 46.1959397 34.907964 46.322968 34.7888648z"/>
      <path d="M54.089838 31.9721697C54.089838 31.9721697 51.3617552 33.061927 49.2385687 32.1329536 49.2385687 32.1329536 48.8695819 33.1750712 48.2767834 34.1695492 48.518742 34.1755042 48.7667495 34.1814591 49.0026591 34.1814591 49.4623804 34.1755042 49.9221017 34.1576393 50.375774 34.1159546 51.3012655 34.0206752 52.244904 33.919441 53.0736121 33.5085489 53.920467 33.061927 54.8580565 32.6748547 55.8258908 32.5200258 56.799774 32.359242 57.7676083 32.3711519 58.7354426 32.3651969L58.7354426 32.4187915C57.7736573 32.502161 56.805823 32.5617105 55.8803315 32.7879989 55.1544557 32.9487828 54.4830207 33.2346208 53.8357815 33.5800084 53.9991036 33.5680984 54.1563766 33.5621435 54.3196987 33.5621435 54.7128814 33.5680984 55.106064 33.6038282 55.4871488 33.7169724 55.8621846 33.8301166 56.2372203 34.0385401 56.4307872 34.3898826L56.3823955 34.4196574C56.1646328 34.1099996 55.8077439 33.9492158 55.444806 33.8777563 55.0818682 33.8062968 54.7007834 33.8062968 54.3257476 33.8360716 53.8176347 33.8718013 53.3276685 33.9730356 52.8377024 34.1040447 52.2690998 34.3601079 51.6702524 34.5328016 51.059307 34.6102161 50.6419284 34.6935855 50.212452 34.7471801 49.7890245 34.7174053 49.2143729 34.6876305 48.6518192 34.5863963 48.1134614 34.4256124 47.9259435 34.7114504 47.7263277 34.9853785 47.508565 35.2176218 49.0510508 36.2478296 50.3999699 38.2546504 62.4978983 32.3651969 59.2193597 30.5787095 58.9532053 30.3047814 54.089838 31.9721697zM40.06229 34.4315674C38.707322 32.8713683 36.8018983 28.5480688 36.0518267 26.815176 35.2049718 27.4761764 32.2470282 31.9840796 34.6363691 37.0041092 34.6363691 37.0041092 35.1868249 38.1831909 36.3179812 40.446075 37.1043465 42.0122289 37.4430885 42.7863735 38.0116911 42.6910941 38.199209 42.143238 38.2899435 41.5656071 38.3322863 40.9939311 38.3564821 40.577084 38.3564821 40.1483271 38.3443842 39.725525 38.1508173 38.742957 37.8846629 37.7663439 37.527774 36.8135506 37.3402561 36.2895143 37.0861996 35.7833428 36.8926328 35.2354867 36.6990659 34.6935855 36.5296949 34.1516843 36.3845198 33.6038282 36.2332957 33.055972 36.1123164 32.502161 35.9913371 31.9483499 35.8643089 31.4004937 35.7675254 30.8347727 35.5860565 30.3107364L35.6344482 30.2869166C35.8582599 30.8169078 35.9913371 31.364764 36.1607081 31.9066651 36.3179812 32.4485663 36.4873522 32.9904675 36.6627721 33.5204588 36.8381921 34.056405 37.0317589 34.5863963 37.2495217 35.0985227 37.3946968 35.4439102 37.5640678 35.7952527 37.7334388 36.1465953 37.703194 36.0572709 37.6850471 35.9679465 37.6548023 35.8786222 37.5640678 35.6046941 37.4612354 35.330766 37.3463051 35.0627929 37.2918644 34.9317838 37.2253258 34.8007748 37.1648362 34.6697657L37.0620038 34.479207C37.02571 34.4077475 36.9894162 34.3243781 36.9652203 34.2410087 36.8744859 33.8896662 37.0317589 33.5680984 37.1708851 33.3179902 37.3160603 33.055972 37.4672844 32.8118188 37.5580188 32.5378907 37.7576347 31.9959895 37.6245574 31.3885838 37.3402561 30.8824124L37.3886478 30.8526376C37.703194 31.3468991 37.8907119 31.9840796 37.7092429 32.5795754 37.6245574 32.8773233 37.4793823 33.1452964 37.358403 33.4073146 37.2313748 33.6693327 37.1345913 33.9373058 37.2192768 34.1695492 37.2374237 34.2290988 37.2676685 34.2826934 37.2979134 34.342243L37.4128437 34.5387566C37.4854313 34.6697657 37.5580188 34.8007748 37.6245574 34.9377388 37.7576347 35.2057119 37.8786139 35.47964 37.9874953 35.759523 38.205258 36.3192891 38.3867269 36.8850101 38.5319021 37.468596 38.5802938 37.6591546 38.6226365 37.8556682 38.6649793 38.0521818 38.9008889 37.6651096 39.0702599 37.2542175 39.1367985 36.8016407 39.2396309 36.1704151 39.1428475 35.47964 39.1005047 34.7769549L39.1549454 34.765045C39.4513446 35.4022255 39.6872542 36.0930006 39.6570094 36.8492803 39.6449115 37.2244427 39.5481281 37.599605 39.384806 37.9449926 39.2335819 38.2427405 39.0339661 38.5047586 38.8101544 38.742957 38.9371827 39.1836239 38.9976723 39.6242908 39.0158192 40.0649577 39.0218682 40.3329308 39.0097702 40.6009039 38.9855744 40.868877 38.9795254 41.3095439 38.9311337 41.7561657 38.8343503 42.1849227 38.882742 42.143238 38.9250847 42.1015533 38.9795254 42.0539136 41.1632015 39.9399035 41.417258 35.9917664 40.06229 34.4315674zM45.8511488 38.6774524C43.0988701 38.6119479 40.3647382 40.4163002 38.9553296 42.8399681 39.227533 42.6374995 39.5239322 42.4588508 39.8384783 42.3159318 40.1590734 42.0836884 40.4978154 41.8693099 40.8547043 41.6847062 41.6531676 41.2440393 42.5423653 40.9820212 43.4376121 40.7974175 44.3268098 40.6068588 45.2402034 40.5234894 46.147548 40.5294444 46.6012203 40.5353993 47.0488437 40.5711291 47.496467 40.6128138 47.9440904 40.6544985 48.3856648 40.725958 48.8272392 40.725958L48.8332881 40.7795526C48.3796158 40.8152824 47.9319925 40.7795526 47.4843691 40.7735977 47.0367458 40.7676427 46.5951714 40.7676427 46.147548 40.7974175 45.2643992 40.8450572 44.3872994 40.9820212 43.5404444 41.2202195 42.8932053 41.3929133 42.2822599 41.6489765 41.6713145 41.9169496 42.0826441 41.9407694 42.4939736 42.0300938 42.8569115 42.1968326 43.1896045 42.3397516 43.4860038 42.5303103 43.782403 42.714914 44.0788023 42.8935627 44.3631036 43.1079412 44.6957966 43.1734457L44.6897476 43.2270404C44.3268098 43.1913106 44.0122637 43.0067069 43.6977175 42.857833 43.3831714 42.7030041 43.0746742 42.5541301 42.7540791 42.4528958 42.1189379 42.2325624 41.4354049 42.2146975 40.8184105 42.429076 40.1893183 42.6374995 39.6630584 43.0483916 39.1005047 43.4116441 38.888791 43.566473 38.6770772 43.7213019 38.4593145 43.8761308 37.7334388 46.0139607 40.2074652 45.6626182 43.0625763 44.6026357 45.9237363 43.5426531 48.0771676 41.7621207 52.577597 41.3929133 48.0953145 38.4749839 45.8511488 38.6774524 45.8511488 38.6774524zM23.8510659 52.7549732C23.8934087 52.7192435 23.9357514 52.6775588 23.9780942 52.641829 24.2502976 52.4214956 24.5466968 52.2309369 24.849145 52.0463332 24.9217326 52.0106035 24.9882712 51.9748737 25.0548098 51.939144 25.1636911 51.8438646 25.2725725 51.7426304 25.3814539 51.653306 25.9923992 51.1530895 26.6880301 50.7838821 27.383661 50.4384946 27.7526478 50.2062512 28.1216347 49.9740078 28.5027194 49.7536744 28.5269153 49.4976112 28.569258 49.235593 28.6599925 48.9854848 28.7628249 48.7056018 28.9261469 48.4495386 29.1378606 48.24707 29.3435254 48.0386465 29.5733861 47.8778626 29.7730019 47.6873039 29.9726177 47.4967453 30.1419887 47.2764118 30.262968 47.0263036L30.3113597 47.0501234C30.2085273 47.3121416 30.0512542 47.5622498 29.8576874 47.7706734 29.6641205 47.9850518 29.4463578 48.1637006 29.2709379 48.3721241 29.0894689 48.5745927 28.9684896 48.812791 28.8959021 49.0628992 28.8354124 49.2891876 28.8112166 49.527386 28.7991186 49.7655843 29.1681055 49.5988455 29.5431412 49.4380616 29.9121281 49.2832327 30.3053107 49.1224488 30.6984934 48.961665 31.0856271 48.7949261 31.4667119 48.6222323 31.8659435 48.4614485 32.1925876 48.1994303L32.2288814 48.241115C31.9143352 48.5388629 31.5272015 48.7353766 31.1582147 48.9438001 30.7831789 49.1462687 30.4020942 49.3368273 30.0270584 49.5333409 29.2709379 49.9144582 28.5208663 50.3015305 27.7889416 50.7243325 27.5288362 50.8732065 27.2808286 51.0280354 27.0328211 51.1947742 27.3050245 51.1471346 27.5832768 51.1114048 27.8675782 51.1292697 28.230516 51.1471346 28.5813559 51.2364589 28.908 51.367468 29.2346441 51.4865672 29.5370923 51.653306 29.8758343 51.6949907L29.8758343 51.7485853C29.5189454 51.7485853 29.1862524 51.6056663 28.8535593 51.5282519 28.5269153 51.4329725 28.1942222 51.3912878 27.8615292 51.4091527 27.2021921 51.4270176 26.5610019 51.6711709 25.9803013 51.9927386 25.9379586 52.0165584 25.8956158 52.0403783 25.8532731 52.0641981 25.7443917 52.1475675 25.6355104 52.2309369 25.532678 52.3202613L23.9901921 53.5231628C23.9055066 53.5886674 23.8268701 53.6541719 23.7421846 53.7256314 23.7300866 53.8745053 23.7240377 54.0233793 23.7119397 54.1782082 35.0295518 53.21946 36.0336798 45.1326269 36.0336798 45.1326269 28.6720904 46.8714747 24.6313823 46.7642854 23.8510659 52.7549732zM36.4873522 42.8399681C36.172806 42.0479587 34.9388173 40.8986518 34.5032919 40.2316965 33.1059812 38.1057765 33.1180791 36.0274961 33.1180791 36.0274961 29.6762185 40.8569671 27.4925424 40.9641563 26.9844294 46.0735103 27.2082411 46.0139607 30.1056949 45.6685732 32.6523089 45.0611674 32.6886026 44.9003836 32.7007006 44.7336448 32.7067495 44.560951 32.7067495 44.275113 32.6765047 43.9773651 32.622064 43.6915271 32.5192316 43.1138962 32.4405951 42.5184004 32.2288814 41.9645893 32.1744407 41.8216703 32.113951 41.7085261 32.0413635 41.5656071 31.956678 41.4048232 31.8961883 41.2321294 31.8780414 41.0594356 31.8356987 40.7080931 31.9203842 40.3865254 32.0050697 40.0828225 32.1986365 39.4813718 32.464791 38.9275607 32.5010847 38.308245L32.5555254 38.308245C32.5918192 38.9394706 32.3861544 39.5587862 32.2712241 40.1483271 32.2107345 40.44012 32.1683917 40.7438229 32.2288814 41.005841 32.2530772 41.1368501 32.3075179 41.2559493 32.3801055 41.3631385 32.464791 41.4881926 32.5615744 41.6430215 32.628113 41.7859405 32.9124143 42.3695264 33.142275 42.9828871 33.1725198 43.6379325 33.1906667 43.9595002 33.1785687 44.2929779 33.0878343 44.6145456 33.0575895 44.7395997 33.0091977 44.8646538 32.9487081 44.983753 35.0597966 44.4537617 36.8381921 43.7332118 36.4873522 42.8399681zM25.2483766 38.3022901C24.0627797 38.9096958 17.4270659 41.291679 17.6811224 54.7915689 17.9593748 54.8987581 18.2376271 54.9463978 18.5219284 54.9523527 18.9151111 54.7975238 19.265951 54.5652805 19.5381544 54.2496677 20.124904 53.5767574 20.463646 52.6954236 20.6935066 51.7843151 20.6935066 51.7366754 20.6995556 51.6890357 20.6995556 51.647351 20.6995556 51.5937564 20.6995556 51.5461167 20.6995556 51.4925221 20.5846252 51.1590445 20.5059887 50.8374767 20.4031563 50.521864 20.2700791 50.1169268 20.2035405 49.6941248 20.0281205 49.2951426 19.8647985 48.8961604 19.6349379 48.5090881 19.441371 48.0922411 19.2478041 47.675394 19.1449718 47.1870875 19.2357062 46.7345107L19.2901469 46.7404656C19.2961959 47.1870875 19.44742 47.5979796 19.6893785 47.961232 19.9252881 48.3304394 20.2035405 48.6936918 20.4334011 49.098629 20.5301846 49.2653678 20.620919 49.4440166 20.7056045 49.6226653 20.6995556 49.1760434 20.6874576 48.7234666 20.6572128 48.2708898 20.626968 47.6873039 20.6390659 47.0977631 20.7479473 46.5201322 20.8628776 45.9425012 21.0624934 45.3827352 21.3346968 44.8706088 21.6129492 44.3584824 21.9577401 43.8880407 22.320678 43.4414189 22.6836158 42.994797 23.0586516 42.56604 23.3490019 42.0777335L23.3973936 42.1015533C23.1372881 42.6136797 22.7803992 43.0781664 22.4537552 43.5426531 22.1210621 44.0071399 21.812565 44.4835365 21.5827043 44.9956629 21.3467947 45.5018343 21.1834727 46.0377806 21.0987872 46.5796817 21.0261996 47.1275379 21.0382976 47.681349 21.0927382 48.2351601 21.1229831 48.5090881 21.1532279 48.7889712 21.1834727 49.0688542 21.2560603 48.7353766 21.3467947 48.4018989 21.467774 48.0743762 21.6673898 47.5443849 21.9516911 47.0024838 22.4416573 46.6570962 22.9316234 46.3057537 23.5304708 46.2700239 24.0325348 46.0437355L24.0567307 46.0913752C23.5546667 46.3593483 22.9618682 46.4427177 22.5505386 46.7940602 22.1331601 47.1334928 21.9093484 47.6515742 21.7520753 48.1637006 21.5887533 48.6817819 21.5101168 49.2296381 21.4314802 49.7715393 21.3709906 50.3074855 21.3346968 50.8553416 21.2560603 51.4151077 21.2500113 51.504432 21.2500113 51.5937564 21.2439623 51.6830808 21.1834727 52.2607117 21.0866893 52.8442976 20.8810245 53.4040637 20.7781921 53.6839467 20.6451149 53.9519198 20.4817928 54.202028 20.451548 54.2437127 20.4152542 54.2794425 20.3850094 54.3211272 22.6715179 52.7787931 24.685823 48.7413315 24.8793898 45.4244199 25.1032015 41.7740306 25.6657552 38.8561012 25.2483766 38.3022901z"/>
      <path d="M11.4627872,0.154828909 C9.75093032,0.387072272 8.16610169,1.4470548 6.30302072,2.29265884 C5.63158569,2.5963617 4.92990584,2.87028977 4.22217702,3.13826288 C4.28871563,3.14421784 4.34920527,3.14421784 4.41574388,3.1501728 C4.60931073,3.16803767 4.79682863,3.19185751 4.98434652,3.21567734 C5.45616573,3.2216323 5.92798493,3.26927196 6.39375518,3.37050625 C6.41190207,3.37050625 6.424,3.37646121 6.43609793,3.38241616 C7.22246328,3.35264137 8.01487759,3.18590255 8.78309605,2.94174927 C9.22467043,2.79883028 9.66019586,2.63209145 10.0654765,2.41771296 C10.2711412,2.31052372 10.4707571,2.19142456 10.646177,2.04850556 C10.8094991,1.91154153 11.0091149,1.71502791 10.9304783,1.51255934 L10.9788701,1.48873951 C11.0454087,1.60783867 11.0091149,1.75075766 10.9486252,1.85199195 C10.8881356,1.95918119 10.8034501,2.04850556 10.7187646,2.13187498 C10.5433446,2.2986138 10.3497778,2.42962288 10.144113,2.56063195 C9.73883239,2.81074019 9.30935593,3.01320877 8.86778154,3.19185751 C8.42620716,3.37050625 7.96648588,3.50747028 7.50071563,3.62061448 C7.44022599,3.6325244 7.37973635,3.63847936 7.32529567,3.65634423 L7.36158945,3.66825415 C7.65193974,3.76353348 7.96043691,3.81117314 8.26893409,3.82903802 C9.53316761,3.87667768 10.7974011,3.39432608 12.007194,2.90006456 C12.6181394,2.64995633 13.2290847,2.38793817 13.8521281,2.16164977 C14.4751714,1.95322624 15.1466064,1.73884775 15.8180414,1.86390186 L15.8059435,1.91749649 C15.1526554,1.83412707 14.5114652,2.07828035 13.9126177,2.32243363 C13.3077213,2.57849683 12.7209718,2.87624473 12.1221243,3.16208272 C10.9244294,3.70993886 9.66624482,4.26970491 8.25683616,4.2994797 C7.90599623,4.2994797 7.55515631,4.25779499 7.21036535,4.16847062 L6.73249718,4.03150659 C6.58127307,3.99577684 6.424,3.95409213 6.26672693,3.9302723 C5.64368362,3.81117314 4.99644444,3.75757852 4.35525424,3.76353348 C3.07287382,3.76948844 1.77839548,3.99577684 0.592798493,4.56745281 C1.54853484,5.24631803 8.03907345,10.4569063 18.939307,1.35773043 C17.3060866,0.923018495 15.3099284,-0.369207398 11.4627872,0.154828909 Z" transform="translate(23.591 51.213)"/>
    </g>
    <path fill="#C52127" d="M79.9621283 151.497732C79.1012708 151.673476 77.1594867 152.180034 74.6286948 152.180034 72.1043756 152.180034 70.1561189 151.673476 69.2952613 151.497732 67.107518 151.048032 66.5573458 153.932312 66.5120375 154.619783 66.4667292 155.307255 68.0913552 155.762123 69.6253646 156.335878 69.7483443 154.8834 70.2273177 154.469884 70.9651956 154.681811 71.7030735 154.893738 73.4118435 155.193538 74.6222222 155.193538L74.6222222 155.193538 74.6222222 155.193538 74.6222222 155.193538 74.6222222 155.193538C75.8326009 155.193538 77.5413709 154.888569 78.2792488 154.681811 79.0171268 154.469884 79.4961002 154.8834 79.6190798 156.335878 81.1530892 155.762123 82.7777152 155.312424 82.7324069 154.619783 82.7000439 153.932312 82.1563443 151.048032 79.9621283 151.497732zM88.9362946 168.369875C88.5454448 167.79164 85.3737949 165.89096 84.3037636 166.014103 83.2337322 166.1426 82.4392179 166.265742 80.0300454 166.490611 77.6144656 166.715481 77.9412417 165.83742 77.9412417 164.359709 77.9412417 162.881997 76.4291015 162.849873 74.6222222 162.849873 72.8153429 162.849873 71.3032028 162.881997 71.3032028 164.359709 71.3032028 165.83742 71.6235714 166.715481 69.214399 166.490611 66.7988192 166.265742 66.0043049 166.1426 64.9406809 166.014103 63.8706495 165.885606 60.6989996 167.79164 60.3081499 168.369875 59.9173001 168.94811 59.6994494 168.932048 61.2179969 169.108731 62.7365444 169.28006 69.8551363 169.810108 71.719682 168.530496 73.5906351 167.250883 74.0071144 166.699418 74.6222222 166.699418 75.2373301 166.699418 75.6602167 167.250883 77.5247624 168.530496 79.3957155 169.810108 86.5143074 169.28006 88.0264476 169.108731 89.5449951 168.932048 89.3271444 168.94811 88.9362946 168.369875z"/>
    <g fill-rule="nonzero" transform="translate(30.822 24.427)">
      <path fill="#C8A977" d="M40.230869,90.1328716 C49.4373433,90.1328716 57.5345323,92.6169198 62.2504776,96.3822775 C67.108791,88.6037617 69.8256501,78.7582277 70.4069867,65.4797513 C70.4069867,65.4797513 52.2669104,75.6818761 40.284257,61.9440623 C28.2482156,75.6758322 10.1615274,65.4797513 10.1615274,65.4797513 C10.736932,78.7280082 13.447859,88.5493665 18.2824444,96.3218384 C23.0102537,92.5927442 31.0718507,90.1328716 40.230869,90.1328716 Z"/>
      <path fill="#CF3339" d="M78.8185721,52.5759975 C78.5990879,51.4760054 78.2253715,50.3760132 77.7389469,49.4029433 C77.2228624,48.3633903 76.5584776,47.3721886 75.8169768,46.5381286 C75.0280199,45.6496734 74.1026269,44.845833 73.1357098,44.2172661 C72.0976086,43.5403478 70.9942554,43.0145274 69.8553101,42.6518927 C68.6451808,42.2650822 67.4053914,42.0475014 66.177466,41.9991501 C64.8724245,41.9447549 63.5911111,42.071677 62.3572537,42.3678288 C61.9776053,42.4584874 61.6157529,42.5914535 61.2420365,42.7123318 C59.5098905,30.7332966 49.7102156,25.7470685 40.9783018,21.3229244 C32.181136,16.8685606 24.3924113,12.4323286 26.5397977,0.531864327 C26.5397977,0.531864327 13.8986915,10.607067 21.2247197,24.8525694 C21.7645323,25.8981664 22.4348396,26.9135437 23.2000779,27.8926576 C21.9246965,27.1553002 20.8094793,26.5327772 19.9671343,26.1097033 C12.7360182,22.4470922 10.2327114,18.6575588 11.0276003,12.5834265 C11.4428408,10.1114661 12.2614577,7.37357362 12.2614577,7.37357362 C12.2614577,7.37357362 1.13301327,17.4125128 4.54984909,29.0470449 C5.78963847,33.2656961 8.51836153,36.8013851 13.0978706,39.4546628 C12.4512819,39.5453215 11.8046932,39.6661997 11.1640365,39.8414732 C9.89458706,40.1859762 8.64886567,40.7178406 7.47432836,41.4128905 C6.37097512,42.071677 5.33880597,42.8876053 4.41341294,43.8485874 C3.55327197,44.7370426 2.7761791,45.8007712 2.15925041,46.924939 C1.57791376,47.9765798 1.11521725,49.1732746 0.818616915,50.3820571 C0.539812604,51.5183127 0.409308458,52.751271 0.438968491,53.9600535 C0.462696517,55.0902652 0.65252073,56.280916 0.978781095,57.3990399 C1.28724544,58.4446368 1.75587396,59.5023216 2.34314262,60.4633037 C2.88888723,61.3578028 3.59479602,62.2220823 4.3837529,62.9594397 C5.11932172,63.6484457 5.9913267,64.2649248 6.90485572,64.7484379 C7.48619237,65.0506335 8.12684909,65.2863461 8.77936982,65.4857952 L8.78530182,65.6187613 C9.36663847,79.0060282 12.0479055,89.0751869 17.2146833,97.3069961 C24.2737711,108.548674 34.6369867,115.051924 39.8749486,116.677737 L40.272393,116.804659 L40.6698375,116.677737 C45.9137313,115.051924 56.2769469,108.548674 63.3301028,97.3069961 C68.4909486,89.0872747 71.1722156,79.0302038 71.7594842,65.6610687 C72.1094726,65.5462344 72.459461,65.4193122 72.7797894,65.2682144 C73.6221343,64.87536 74.4288872,64.3555835 75.117,63.769324 C75.8525688,63.1347132 76.5228856,62.3913119 77.0508342,61.6116471 C77.6143748,60.7715432 78.0830033,59.8347368 78.3973997,58.9100181 C78.735524,57.9127725 78.9490763,56.8490438 79.0143284,55.8336665 C79.0973765,54.7336744 79.0202604,53.6095066 78.8185721,52.5759975 Z M40.284257,113.873361 C35.4911957,112.229417 26.6821658,106.536051 20.2459386,96.8778783 C23.283126,95.1734949 41.3104942,86.0230109 60.2751194,96.9504053 C53.8448242,106.566271 45.0595224,112.229417 40.284257,113.873361 Z M61.9242172,94.3152593 C41.2808342,82.3120485 21.6577562,92.4960416 18.5968408,94.2366884 C14.5868043,87.2076178 12.3504378,78.7038325 11.650461,67.788526 C16.8231708,69.9824664 30.2650978,74.1829858 40.278325,64.047344 C50.2678242,74.1950736 63.7334793,69.9885103 68.9121211,67.788526 C68.2121443,78.7461399 65.9639138,87.268057 61.9242172,94.3152593 Z M75.8347728,57.9913434 C75.5974925,58.6863933 75.2475041,59.3935311 74.8144677,60.0341859 C74.4229552,60.6144015 73.9246667,61.1704415 73.37299,61.6418667 C72.8747015,62.0709845 72.2815008,62.451751 71.6586401,62.7418588 C71.1010315,63.0017471 70.4663068,63.2011962 69.8197181,63.3039427 C69.2502454,63.3946014 68.6214527,63.4127331 68.0104561,63.3402062 C67.4706434,63.2797671 66.9011708,63.1286692 66.3613582,62.9110884 C65.8927297,62.7176832 65.4063051,62.4275754 64.9792007,62.0951601 C64.6114163,61.8050523 64.2436318,61.4182419 63.9470315,61.0132998 C63.6919552,60.6567089 63.454675,60.2215472 63.2945108,59.7803415 C63.1521426,59.399575 63.0572305,58.9523255 63.0216385,58.5232077 C62.9919784,58.1666168 63.0216385,57.7254112 63.0928226,57.3446447 C63.1521426,57.0303612 63.2885788,56.6495947 63.448743,56.3413552 C63.5792471,56.0875108 63.7927993,55.7913591 64.0063516,55.5677343 C64.1724478,55.3924608 64.4393881,55.1869678 64.6648043,55.0600456 C64.8427645,54.9572991 65.1215688,54.8545526 65.3410531,54.8062013 C65.5249453,54.7638939 65.7859536,54.75785 65.9461177,54.7759817 C66.0825539,54.7880696 66.3020381,54.8545526 66.4206783,54.9089478 C66.4977944,54.9391674 66.6698226,55.0600456 66.7528706,55.1325726 C66.7943947,55.1688361 66.8299867,55.2232313 66.8537148,55.2836704 C66.2664461,55.4408122 65.8334096,55.9968521 65.8393416,56.6435508 C65.8512056,57.4050838 66.4859303,58.0336507 67.2214992,58.0094751 C68.2833284,57.9913434 69.1256733,57.4171716 69.4756617,56.4622334 C69.8790381,55.3561974 69.4815937,53.8935705 68.5680647,53.0655544 C68.3426484,52.8600614 67.927408,52.5518218 67.5003035,52.3584166 C67.1918391,52.2254505 66.6816866,52.0622649 66.195262,52.0139136 C66.0232338,51.9957819 65.4003731,51.9534745 64.7656484,52.0924845 C64.2732919,52.2012749 63.7512753,52.400724 63.3360348,52.6364366 C62.8674063,52.9023688 62.3987778,53.2710475 62.0487894,53.6397261 C61.6572769,54.0567561 61.2894925,54.5704887 61.0403483,55.0540017 C60.7615439,55.59191 60.5420597,56.2265208 60.4293516,56.8006925 C60.3047794,57.4413473 60.2632554,58.1303533 60.3166434,58.7528764 C60.3700315,59.4358385 60.5301957,60.1490202 60.7556119,60.7654993 C61.0047562,61.4363737 61.3666086,62.1132919 61.7699851,62.6693319 C62.2089536,63.2737231 62.7665622,63.8539388 63.3301028,64.2951444 C63.9529635,64.7847013 64.6529403,65.1956874 65.3529171,65.4857952 C65.6969735,65.6248052 66.0588259,65.7396396 66.4147463,65.8423861 C60.8623881,67.9577556 49.5678474,70.5505942 41.3164262,61.0918706 L40.2961211,59.9193515 L39.2758159,61.0858267 C30.8642305,70.6835602 19.3680017,67.8731408 13.9224196,65.7456835 C14.3613881,65.6550248 14.8003566,65.5281026 15.227461,65.3770048 C16.0223499,65.0929409 16.8291028,64.669867 17.5528076,64.1561344 C18.2171924,63.6847092 18.8519171,63.0863618 19.3857977,62.4215314 C19.8662902,61.8231841 20.3111907,61.0858267 20.6315191,60.3424254 C20.9221874,59.6655072 21.1416716,58.8737546 21.2425158,58.1122216 C21.3374279,57.4171716 21.3314959,56.6375069 21.2306517,55.9061934 C21.1416716,55.2474069 20.9340514,54.5342252 20.6552471,53.8996144 C20.4061028,53.3314866 20.0264544,52.7210514 19.6112139,52.2254505 C19.2374975,51.778201 18.7332769,51.3309514 18.2290564,50.9924923 C17.7722919,50.6902967 17.1968872,50.4243645 16.6511426,50.255135 C16.1587861,50.1100811 15.5774494,50.0315102 15.0317048,50.0375541 C14.331728,50.043598 13.6970033,50.2430471 13.5190431,50.2974424 C13.0207546,50.4666719 12.528398,50.7567797 12.2377297,50.9743606 C11.8343532,51.2765562 11.4784328,51.6996301 11.3004726,51.9595184 C10.5293118,53.0474227 10.4640597,54.6671913 11.1403085,55.7248761 C11.7216451,56.631463 12.7300862,57.0303612 13.8453035,56.7886047 C14.6223964,56.6193751 15.1266169,55.8336665 14.9605207,55.0419139 C14.8181526,54.3710396 14.2486799,53.8996144 13.5783632,53.8814826 C13.5961592,53.8029118 13.6198872,53.7243409 13.6614113,53.6699457 C13.7266633,53.579287 13.8749635,53.4161014 13.9461476,53.3617061 C14.0588557,53.2770914 14.284272,53.1562131 14.4207081,53.1078618 C14.5868043,53.0534666 14.8656086,52.9930275 15.0672968,52.9930275 C15.3164411,52.9930275 15.6249055,53.0292909 15.8325257,53.095774 C16.105398,53.1743448 16.4316584,53.3254427 16.6452106,53.4704966 C16.9240149,53.651814 17.2146833,53.9117022 17.4104395,54.1474148 C17.6536517,54.4375226 17.879068,54.8001574 18.0214362,55.1144409 C18.1875323,55.4952074 18.3180365,55.9485008 18.3714245,56.3292673 C18.4366766,56.7946486 18.4366766,57.2902495 18.3832886,57.7193673 C18.3121045,58.221012 18.1756683,58.7407885 17.9858441,59.1699064 C17.7722919,59.6715511 17.4756915,60.1611081 17.1553632,60.5600063 C16.7935108,61.0072558 16.3486103,61.4303297 15.9037098,61.7506571 C15.3935572,62.1132919 14.8300166,62.4094436 14.27834,62.6028488 C13.6554793,62.8264736 12.9970265,62.9654836 12.3741658,63.007791 C11.6741891,63.0500984 10.9623483,63.007791 10.3157595,62.868781 C9.59205473,62.7116393 8.88021393,62.4577949 8.25735323,62.1374675 C7.56924046,61.7748328 6.91671973,61.3154954 6.37097512,60.8017628 C5.77184245,60.2396789 5.23796186,59.5869363 4.82272139,58.916062 C4.37188889,58.1787047 4.01003648,57.3688203 3.77275622,56.5710238 C3.51767993,55.7007004 3.36937977,54.7820257 3.35158375,53.9056583 C3.32785572,52.956764 3.43463184,51.9897379 3.64818408,51.1073267 C3.88546434,50.1463445 4.24731675,49.2034941 4.70408126,48.3754781 C5.19643781,47.480979 5.81929851,46.6348312 6.49554726,45.9276934 C7.23111609,45.1661604 8.07939303,44.4892421 8.95139801,43.9755096 C9.88865506,43.4194696 10.9208242,42.9782639 11.9351973,42.700244 C12.552126,42.5310144 13.1749867,42.4101361 13.7919154,42.3376092 L13.7859834,42.283214 C13.7919154,42.283214 13.7919154,42.283214 13.7978474,42.283214 L13.8037794,42.3376092 L14.0054677,42.3134335 L14.0054677,42.2892579 C14.349524,42.2953018 14.7054444,42.3013457 15.0850929,42.3315653 C17.5528076,42.5007948 20.4950829,43.2381522 23.3187181,44.3441882 C28.1117794,46.5864799 31.5642073,48.0611946 34.3166584,50.3276619 C34.3166584,50.3276619 33.7234577,46.1452743 28.6871841,43.7216652 C27.3762106,43.0930983 25.9999851,42.4343118 24.5703715,41.8601401 C23.6449784,41.4249784 22.6661973,40.9716849 21.6221642,40.4881719 C20.0501824,39.7629023 18.3299005,38.9651058 16.4257264,38.0645628 C11.3597927,35.6772173 8.26328524,32.4135044 7.22518408,28.3640828 C6.22860697,24.4838908 7.27264013,20.4949083 8.48276949,17.5877863 C9.68103483,23.2086252 14.2190199,26.3091524 18.774801,28.6118832 C23.5856584,31.0475801 38.2139867,40.4156449 38.3563549,40.5123475 L43.801937,43.9996852 C43.801937,43.9996852 43.5349967,39.8172976 36.9267413,35.9552373 C32.7802687,33.5376721 26.3203134,28.696498 23.6805705,23.5591721 C19.682398,15.7806563 21.9365605,10.4197057 24.113607,7.54280318 C24.3864793,16.0224128 32.198932,19.9811757 39.7859685,23.8251043 C48.8738027,28.4305658 58.2701012,33.1871252 58.7921177,45.4562682 L58.8099138,45.4441804 L58.8751658,46.7798851 C59.901403,46.0364838 61.9242172,45.329346 62.9979104,45.0755017 C63.9944876,44.8397891 65.0385207,44.7430865 66.1062819,44.77935 C67.079131,44.8156134 68.1053682,44.9969308 69.0722852,45.3051704 C69.9680182,45.5892343 70.8815473,46.024396 71.7001642,46.5623042 C72.459461,47.0579051 73.1950299,47.6925159 73.8297546,48.4056976 C74.4110912,49.0644841 74.9331078,49.8441489 75.3424163,50.666121 C75.7161327,51.4216101 76.006801,52.2798458 76.1847612,53.1441253 C76.3449254,53.9419218 76.3983134,54.8062013 76.3449254,55.6523491 C76.2618773,56.4138821 76.0957811,57.2237664 75.8347728,57.9913434 Z"/>
    </g>
  </g>
</svg>
